# Blender 5.0.1
# www.blender.org
mtllib cofre.mtl
g Hood_Mesh
v -0.012403 0.032090 -0.554963
v -0.127649 0.038109 -0.554991
v -0.249251 0.044014 -0.554645
v -0.372862 0.046366 -0.554288
v -0.498474 0.045730 -0.553463
v -0.609585 0.043635 -0.553778
v -0.023945 0.027381 -0.516002
v -0.130602 0.022889 -0.517442
v -0.249546 0.022865 -0.518706
v -0.371577 0.023865 -0.517323
v -0.497954 0.025746 -0.511059
v -0.609975 0.027657 -0.499651
v -0.755683 0.039824 -0.552182
v -0.706027 -0.046312 -0.404006
v -0.719328 -0.028574 -0.446937
v -0.718592 0.017514 -0.482028
v -0.029988 0.020512 -0.491297
v -0.134609 0.006804 -0.490770
v -0.251770 -0.003501 -0.491979
v -0.369381 -0.005271 -0.486091
v -0.496262 -0.006681 -0.472761
v -0.607283 -0.011384 -0.458792
v -0.761926 0.006223 -0.472688
v -0.046088 0.021262 -0.451558
v -0.145044 0.009606 -0.453508
v -0.257864 -0.003859 -0.460481
v -0.370188 -0.009893 -0.456545
v -0.487186 -0.017013 -0.442116
v -0.592703 -0.026124 -0.425955
v 0.076432 0.033290 -0.517556
v -0.719427 0.040000 -0.553016
v 0.059772 0.030811 -0.488636
v 0.029099 0.028626 -0.452006
v 0.081114 0.028528 -0.553804
v -0.780824 -0.081006 -0.379644
v 0.016108 0.040417 -0.370565
v -0.160948 0.034210 -0.368495
v -0.374914 0.016723 -0.363690
v -0.580696 -0.010910 -0.344098
v -0.797363 -0.083512 -0.295957
v 0.001189 0.055101 -0.272438
v -0.167705 0.052803 -0.270975
v -0.377168 0.034333 -0.267205
v -0.582692 0.002594 -0.255417
v -0.805540 -0.082542 -0.222184
v -0.016692 0.068412 -0.176647
v -0.174584 0.064425 -0.176162
v -0.380133 0.044772 -0.175474
v -0.586784 0.011609 -0.168897
v -0.811502 -0.081509 -0.148505
v -0.032095 0.078024 -0.084804
v -0.184795 0.071644 -0.084877
v -0.385049 0.051074 -0.085906
v -0.590216 0.017301 -0.083332
v -0.816080 -0.080793 -0.072666
v -0.765600 -0.061068 -0.440656
v -0.062501 0.036488 -0.369761
v -0.073656 0.053023 -0.271808
v -0.085244 0.066032 -0.176408
v -0.098708 0.074508 -0.084781
v -0.267941 0.025714 -0.367948
v -0.271299 0.044634 -0.269415
v -0.275628 0.055600 -0.176010
v -0.282966 0.062283 -0.085467
v -0.481256 0.003503 -0.354680
v -0.482886 0.019013 -0.261739
v -0.486348 0.028697 -0.172507
v -0.490357 0.034713 -0.084858
v -0.697423 -0.042532 -0.319989
v -0.701112 -0.034238 -0.238431
v -0.706193 -0.026197 -0.158494
v -0.710168 -0.021269 -0.077924
v 0.009726 0.083509 -0.084839
v 0.015904 0.075114 -0.176857
v 0.027850 0.061822 -0.272739
v 0.040964 0.046667 -0.369919
v 0.051493 0.034665 -0.449859
v -0.784995 -0.096466 -0.376405
v -0.804490 -0.100418 -0.293786
v -0.813170 -0.100482 -0.220827
v -0.819196 -0.100002 -0.147556
v -0.823814 -0.099521 -0.072008
v -0.773533 -0.083305 -0.441325
v -0.782011 -0.110782 -0.373281
v -0.798362 -0.107977 -0.290715
v -0.807076 -0.107536 -0.216616
v -0.813071 -0.107056 -0.143386
v -0.817652 -0.106576 -0.067789
v -0.769814 -0.108460 -0.427937
v -0.746902 -0.063236 -0.391270
v -0.740710 0.039981 -0.552353
v -0.745337 -0.044363 -0.441845
v -0.750776 -0.062837 -0.307146
v -0.756747 -0.058335 -0.229778
v -0.762297 -0.053780 -0.153174
v -0.766600 -0.051001 -0.075115
v -0.741660 0.013504 -0.475923
v -0.653900 -0.035697 -0.414693
v -0.669462 -0.019191 -0.452153
v -0.673483 0.041573 -0.553914
v -0.670509 0.023362 -0.490370
v -0.642137 -0.026343 -0.332295
v -0.645074 -0.015283 -0.247083
v -0.649670 -0.006526 -0.163814
v -0.653302 -0.001114 -0.080732
v -0.816638 -0.104760 -0.145463
v -0.821256 -0.104279 -0.069915
v -0.802233 -0.105465 -0.291834
v -0.810612 -0.105241 -0.218734
v -0.783812 -0.103410 -0.375201
v -0.774457 -0.097888 -0.439484
v -0.017899 0.031811 -0.532696
v -0.129471 0.033066 -0.533490
v -0.249750 0.036564 -0.533961
v -0.372786 0.038231 -0.533279
v -0.498762 0.038878 -0.530047
v -0.611785 0.038896 -0.523958
v -0.757619 0.031173 -0.508019
v 0.081524 0.032083 -0.533199
v -0.720175 0.032302 -0.514118
v -0.741355 0.032414 -0.510735
v -0.672460 0.035896 -0.518812
v 0.072514 0.032563 -0.506184
v -0.720697 -0.004764 -0.463768
v -0.027163 0.023871 -0.503847
v -0.250901 0.009426 -0.504645
v -0.132625 0.014422 -0.504364
v -0.370937 0.009247 -0.500963
v -0.610224 0.009167 -0.478299
v -0.498492 0.010023 -0.491125
v -0.762796 -0.027870 -0.450559
v -0.744211 -0.016706 -0.458701
v -0.671651 0.002983 -0.470444
v -0.012403 0.032090 0.566716
v -0.127649 0.038109 0.566745
v -0.249251 0.044014 0.566399
v -0.372862 0.046366 0.566041
v -0.498474 0.045729 0.565216
v -0.609586 0.043635 0.565532
v -0.023945 0.027381 0.527756
v -0.130602 0.022889 0.529195
v -0.249546 0.022864 0.530460
v -0.371577 0.023865 0.529077
v -0.497954 0.025745 0.522813
v -0.609975 0.027656 0.511405
v -0.755683 0.039823 0.563936
v -0.706027 -0.046312 0.415760
v -0.719328 -0.028574 0.458690
v -0.718592 0.017514 0.493782
v -0.029988 0.020512 0.503051
v -0.134610 0.006804 0.502523
v -0.251770 -0.003501 0.503732
v -0.369381 -0.005271 0.497845
v -0.496262 -0.006682 0.484515
v -0.607283 -0.011384 0.470545
v -0.761926 0.006223 0.484441
v -0.046088 0.021262 0.463312
v -0.145044 0.009606 0.465261
v -0.257864 -0.003859 0.472235
v -0.370188 -0.009893 0.468298
v -0.487186 -0.017013 0.453869
v -0.592703 -0.026124 0.437708
v 0.076432 0.033289 0.529310
v -0.719427 0.040000 0.564769
v 0.059771 0.030811 0.500390
v 0.029099 0.028626 0.463759
v 0.081114 0.028528 0.565557
v -0.780824 -0.081006 0.391397
v 0.016108 0.040417 0.382318
v -0.160948 0.034210 0.380248
v -0.374914 0.016723 0.375443
v -0.580696 -0.010910 0.355852
v -0.797363 -0.083512 0.307710
v 0.001189 0.055100 0.284192
v -0.167706 0.052803 0.282728
v -0.377168 0.034333 0.278958
v -0.582692 0.002594 0.267171
v -0.805540 -0.082542 0.233937
v -0.016693 0.068412 0.188400
v -0.174584 0.064425 0.187916
v -0.380133 0.044772 0.187228
v -0.586784 0.011609 0.180650
v -0.811502 -0.081509 0.160258
v -0.032095 0.078024 0.096557
v -0.184795 0.071644 0.096630
v -0.385049 0.051074 0.097659
v -0.590217 0.017301 0.095085
v -0.816080 -0.080793 0.084420
v -0.044525 0.083186 0.005877
v -0.195941 0.075299 0.005877
v -0.390188 0.054085 0.005877
v -0.590538 0.020645 0.005877
v -0.816101 -0.079460 0.005877
v -0.765600 -0.061068 0.452410
v -0.062502 0.036488 0.381514
v -0.073656 0.053023 0.283562
v -0.085244 0.066032 0.188162
v -0.098708 0.074508 0.096534
v -0.112264 0.079478 0.005877
v -0.267941 0.025714 0.379702
v -0.271299 0.044634 0.281168
v -0.275628 0.055600 0.187764
v -0.282966 0.062283 0.097221
v -0.290847 0.065852 0.005877
v -0.481256 0.003503 0.366433
v -0.482886 0.019013 0.273492
v -0.486348 0.028696 0.184260
v -0.490358 0.034713 0.096612
v -0.493717 0.037941 0.005877
v -0.697423 -0.042532 0.331743
v -0.701112 -0.034238 0.250184
v -0.706193 -0.026197 0.170247
v -0.710168 -0.021269 0.089677
v -0.712261 -0.017732 0.005877
v 0.000280 0.086581 0.005877
v 0.009726 0.083509 0.096592
v 0.015904 0.075114 0.188610
v 0.027850 0.061822 0.284492
v 0.040964 0.046667 0.381673
v 0.051493 0.034665 0.461612
v -0.784995 -0.096467 0.388158
v -0.804491 -0.100418 0.305539
v -0.813170 -0.100482 0.232580
v -0.819197 -0.100002 0.159309
v -0.823815 -0.099521 0.083761
v -0.825966 -0.098438 0.005877
v -0.773533 -0.083305 0.453079
v -0.782012 -0.110783 0.385034
v -0.798363 -0.107977 0.302469
v -0.807076 -0.107536 0.228370
v -0.813071 -0.107056 0.155139
v -0.817652 -0.106576 0.079542
v -0.820243 -0.105994 0.005877
v -0.769814 -0.108460 0.439690
v -0.746902 -0.063236 0.403023
v -0.740710 0.039980 0.564107
v -0.745337 -0.044363 0.453598
v -0.750776 -0.062837 0.318900
v -0.756747 -0.058335 0.241532
v -0.762297 -0.053780 0.164928
v -0.766600 -0.051001 0.086869
v -0.768807 -0.048459 0.005877
v -0.741660 0.013504 0.487676
v -0.653900 -0.035697 0.426447
v -0.669462 -0.019192 0.463906
v -0.673483 0.041573 0.565667
v -0.670509 0.023361 0.502124
v -0.642137 -0.026343 0.344049
v -0.645074 -0.015283 0.258837
v -0.649670 -0.006526 0.175567
v -0.653302 -0.001114 0.092486
v -0.655403 0.002846 0.005877
v -0.816638 -0.104760 0.157216
v -0.821256 -0.104279 0.081668
v -0.802233 -0.105465 0.303587
v -0.810612 -0.105241 0.230487
v -0.783812 -0.103410 0.386955
v -0.823523 -0.103896 0.005877
v -0.774457 -0.097889 0.451237
v -0.017899 0.031811 0.544449
v -0.129471 0.033065 0.545243
v -0.249750 0.036564 0.545715
v -0.372786 0.038231 0.545033
v -0.498763 0.038878 0.541800
v -0.611785 0.038896 0.535712
v -0.757619 0.031173 0.519773
v 0.081524 0.032083 0.544953
v -0.720176 0.032302 0.525872
v -0.741355 0.032414 0.522489
v -0.672460 0.035895 0.530566
v 0.072514 0.032563 0.517937
v -0.720697 -0.004764 0.475522
v -0.027163 0.023871 0.515600
v -0.250901 0.009426 0.516399
v -0.132625 0.014422 0.516117
v -0.370937 0.009247 0.512717
v -0.610224 0.009166 0.490053
v -0.498492 0.010023 0.502878
v -0.762796 -0.027870 0.462313
v -0.744211 -0.016706 0.470454
v -0.671651 0.002983 0.482197
vn 0.0260 0.8778 0.4783
vn -0.0508 0.9985 -0.0217
vn 0.0077 0.9227 0.3853
vn -0.0168 0.7242 0.6894
vn -0.0917 0.9787 0.1837
vn -0.0600 0.8587 0.5089
vn -0.2023 0.9663 -0.1592
vn -0.0604 0.9951 0.0778
vn -0.1029 0.9829 0.1530
vn 0.0152 0.6645 0.7471
vn 0.0071 0.8087 0.5882
vn -0.0284 0.5751 0.8176
vn 0.0116 0.9306 0.3657
vn -0.0421 0.9633 0.2651
vn 0.0008 0.9918 0.1276
vn -0.0816 0.9645 0.2510
vn -0.0279 0.8443 0.5352
vn 0.0481 0.7210 0.6912
vn 0.0652 0.7591 0.6477
vn -0.1119 0.9659 -0.2333
vn -0.0729 0.9896 -0.1243
vn -0.1461 0.9733 0.1771
vn -0.1529 0.7347 0.6610
vn -0.2697 0.9452 0.1838
vn -0.0291 0.9585 0.2837
vn -0.0196 0.9829 0.1833
vn 0.0026 0.9555 0.2948
vn 0.0144 0.9131 0.4076
vn 0.0251 0.7496 0.6614
vn 0.0116 0.8679 0.4967
vn -0.1143 0.9934 0.0065
vn -0.0696 0.9960 0.0564
vn 0.0366 0.7342 0.6779
vn 0.0501 0.8111 0.5828
vn -0.1097 0.9890 0.0991
vn -0.1489 0.9807 -0.1265
vn -0.0461 0.9512 0.3050
vn -0.1003 0.9756 -0.1955
vn -0.0038 0.8204 0.5718
vn -0.0026 0.7408 0.6718
vn 0.0153 0.8755 0.4829
vn -0.0310 0.9995 0.0032
vn 0.0134 0.9947 -0.1018
vn 0.0031 0.9581 0.2863
vn -0.0995 0.9834 -0.1518
vn -0.3073 0.6421 0.7023
vn -0.4093 0.9051 0.1148
vn -0.0870 0.9654 -0.2458
vn -0.0589 0.9732 -0.2222
vn -0.1576 0.9774 -0.1410
vn -0.1220 0.9812 -0.1497
vn -0.0180 0.9884 -0.1505
vn -0.1297 0.9773 -0.1673
vn -0.0395 0.9833 -0.1774
vn -0.1258 0.9873 -0.0968
vn -0.0894 0.9839 -0.1547
vn -0.4016 0.9135 -0.0644
vn -0.3700 0.9230 -0.1055
vn -0.3351 0.9399 -0.0663
vn -0.2209 0.9660 -0.1344
vn -0.1440 0.9692 -0.1998
vn -0.0435 0.9871 -0.1542
vn -0.2207 0.9709 -0.0929
vn -0.0265 0.9928 -0.1171
vn -0.1629 0.9849 -0.0580
vn -0.1605 0.9826 -0.0940
vn -0.0881 0.9928 -0.0806
vn -0.1095 0.9846 -0.1362
vn -0.1334 0.9911 -0.0000
vn -0.1019 0.9927 -0.0651
vn -0.1297 0.9898 -0.0592
vn -0.4897 0.8707 -0.0462
vn -0.3880 0.9169 -0.0936
vn -0.4603 0.8849 -0.0716
vn -0.2206 0.9736 -0.0579
vn -0.0525 0.9930 -0.1060
vn -0.0417 0.9961 -0.0773
vn -0.2150 0.9766 -0.0000
vn -0.0637 0.9955 -0.0695
vn -0.0493 0.9988 -0.0000
vn -0.0945 0.9904 -0.1009
vn -0.0645 0.9979 -0.0000
vn -0.3082 0.9493 -0.0627
vn -0.3082 0.9466 -0.0949
vn -0.1210 0.9793 -0.1622
vn -0.3062 0.9438 -0.1241
vn -0.2657 0.9583 -0.1051
vn -0.2418 0.9564 -0.1637
vn -0.1646 0.9864 -0.0000
vn -0.0734 0.9973 -0.0000
vn -0.5081 0.8613 -0.0000
vn -0.3969 0.9158 -0.0613
vn -0.3025 0.9531 -0.0000
vn -0.4260 0.9011 -0.0812
vn 0.0353 0.5013 0.8646
vn -0.0368 0.5450 0.8376
vn 0.0125 0.9529 0.3031
vn -0.0854 0.9963 -0.0000
vn -0.1297 0.9889 -0.0725
vn -0.1925 0.9709 -0.1423
vn -0.2387 0.9547 -0.1778
vn -0.2362 0.9554 -0.1771
vn -0.7362 0.6747 -0.0527
vn -0.9658 0.2188 -0.1394
vn -0.9831 0.0192 -0.1819
vn -0.7108 0.7026 -0.0343
vn -0.9932 -0.0920 -0.0713
vn -0.9951 -0.0886 -0.0445
vn -0.6996 0.7119 -0.0610
vn -0.9904 -0.0966 -0.0991
vn -0.6739 0.7343 -0.0818
vn -0.9822 -0.0759 -0.1718
vn -1.0000 0.0089 -0.0000
vn -0.6976 0.7165 -0.0000
vn -0.6831 -0.7299 -0.0261
vn -0.5281 -0.8486 -0.0309
vn -0.5303 -0.8476 -0.0171
vn -0.6731 -0.7368 -0.0632
vn -0.5294 -0.8458 -0.0661
vn -0.5250 -0.8499 -0.0446
vn -0.6612 0.7424 -0.1077
vn -0.7090 -0.7052 -0.0000
vn -0.5390 -0.8423 -0.0000
vn -0.6786 -0.7332 -0.0442
vn -0.9413 -0.2665 -0.2070
vn -0.8379 -0.5178 -0.1728
vn -0.9276 -0.3065 -0.2135
vn -0.0235 0.9263 0.3761
vn -0.0532 0.7450 0.6649
vn -0.6411 0.7203 0.2649
vn -0.3997 0.9167 -0.0000
vn -0.0323 0.9867 0.1591
vn -0.0514 0.7873 0.6144
vn 0.0026 0.8414 0.5403
vn -0.9641 -0.2020 -0.1725
vn -0.6950 -0.7113 -0.1047
vn 0.0379 0.8560 0.5156
vn -0.0127 0.9835 0.1802
vn 0.0017 0.9826 0.1857
vn -0.0133 0.9851 0.1715
vn -0.0035 0.9571 0.2896
vn 0.0276 0.9996 -0.0033
vn 0.0396 0.9845 -0.1707
vn 0.0252 0.9447 0.3269
vn 0.0326 0.9778 0.2072
vn 0.0074 0.9335 0.3585
vn -0.0734 0.5842 0.8083
vn 0.0260 0.8778 -0.4783
vn -0.0508 0.9985 0.0217
vn -0.0604 0.9951 -0.0778
vn -0.0168 0.7242 -0.6894
vn -0.0917 0.9787 -0.1837
vn -0.0461 0.9512 -0.3050
vn -0.2023 0.9663 0.1592
vn -0.1029 0.9829 -0.1530
vn 0.0152 0.6645 -0.7471
vn 0.0071 0.8087 -0.5882
vn 0.0026 0.8414 -0.5403
vn -0.0421 0.9633 -0.2651
vn 0.0116 0.9306 -0.3657
vn 0.0008 0.9918 -0.1276
vn -0.0816 0.9645 -0.2510
vn -0.0279 0.8443 -0.5352
vn 0.0481 0.7210 -0.6912
vn -0.0038 0.8204 -0.5718
vn -0.0729 0.9896 0.1243
vn -0.1119 0.9659 0.2333
vn -0.1461 0.9733 -0.1771
vn -0.1529 0.7347 -0.6610
vn -0.0514 0.7873 -0.6144
vn -0.0291 0.9585 -0.2837
vn -0.0196 0.9829 -0.1833
vn -0.0323 0.9867 -0.1591
vn 0.0251 0.7496 -0.6614
vn 0.0144 0.9131 -0.4076
vn 0.0116 0.8679 -0.4967
vn -0.1143 0.9934 -0.0065
vn -0.1097 0.9890 -0.0991
vn 0.0366 0.7342 -0.6779
vn 0.0501 0.8111 -0.5828
vn -0.1489 0.9807 0.1265
vn -0.1003 0.9756 0.1955
vn 0.0077 0.9227 -0.3853
vn -0.0026 0.7408 -0.6718
vn 0.0153 0.8755 -0.4829
vn -0.0310 0.9995 -0.0032
vn 0.0134 0.9947 0.1018
vn 0.0031 0.9581 -0.2863
vn -0.0995 0.9834 0.1518
vn -0.3073 0.6421 -0.7023
vn -0.2697 0.9452 -0.1838
vn -0.4093 0.9051 -0.1148
vn -0.0870 0.9654 0.2458
vn -0.0589 0.9732 0.2222
vn -0.1576 0.9774 0.1410
vn -0.1220 0.9812 0.1497
vn -0.0180 0.9884 0.1505
vn -0.1297 0.9773 0.1673
vn -0.1210 0.9793 0.1622
vn -0.0894 0.9839 0.1547
vn -0.1258 0.9873 0.0968
vn -0.4016 0.9135 0.0644
vn -0.3700 0.9230 0.1055
vn -0.4260 0.9011 0.0812
vn -0.1440 0.9692 0.1998
vn -0.2209 0.9660 0.1344
vn -0.0395 0.9833 0.1774
vn -0.0435 0.9871 0.1542
vn -0.2207 0.9709 0.0929
vn -0.0265 0.9928 0.1171
vn -0.0525 0.9930 0.1060
vn -0.1629 0.9849 0.0580
vn -0.1605 0.9826 0.0940
vn -0.0881 0.9928 0.0806
vn -0.0417 0.9961 0.0773
vn -0.1019 0.9927 0.0651
vn -0.1297 0.9898 0.0592
vn -0.3880 0.9169 0.0936
vn -0.4897 0.8707 0.0462
vn -0.4603 0.8849 0.0716
vn -0.2206 0.9736 0.0579
vn -0.0637 0.9955 0.0695
vn -0.0945 0.9904 0.1009
vn -0.3082 0.9493 0.0627
vn -0.1095 0.9846 0.1362
vn -0.3062 0.9438 0.1241
vn -0.2418 0.9564 0.1637
vn -0.1083 0.9941 -0.0000
vn -0.3969 0.9158 0.0613
vn -0.3082 0.9466 0.0949
vn 0.0353 0.5013 -0.8646
vn -0.0368 0.5450 -0.8376
vn 0.0125 0.9529 -0.3031
vn -0.0532 0.7450 -0.6649
vn -0.1297 0.9889 0.0725
vn -0.1925 0.9709 0.1423
vn -0.2387 0.9547 0.1778
vn -0.2362 0.9554 0.1771
vn -0.7362 0.6747 0.0527
vn -0.9658 0.2188 0.1394
vn -0.6411 0.7203 -0.2649
vn -0.7108 0.7026 0.0343
vn -0.9932 -0.0920 0.0713
vn -0.6996 0.7119 0.0610
vn -0.9904 -0.0966 0.0991
vn -0.6739 0.7343 0.0818
vn -0.3351 0.9399 0.0663
vn -0.9822 -0.0759 0.1718
vn -0.6612 0.7424 0.1077
vn -0.2657 0.9583 0.1051
vn -0.6831 -0.7299 0.0261
vn -0.5281 -0.8486 0.0309
vn -0.6786 -0.7332 0.0442
vn -0.6731 -0.7368 0.0632
vn -0.5294 -0.8458 0.0661
vn -0.6950 -0.7113 0.1047
vn -0.9831 0.0192 0.1819
vn -0.5303 -0.8476 0.0171
vn -0.5250 -0.8499 0.0446
vn -0.9413 -0.2665 0.2070
vn -0.8379 -0.5178 0.1728
vn -0.9641 -0.2020 0.1725
vn -0.0235 0.9263 -0.3761
vn -0.0734 0.5842 -0.8083
vn -0.0284 0.5751 -0.8176
vn -0.0133 0.9851 -0.1715
vn 0.0379 0.8560 -0.5156
vn -0.9276 -0.3065 0.2135
vn -0.9951 -0.0886 0.0445
vn -0.0127 0.9835 -0.1802
vn 0.0017 0.9826 -0.1857
vn 0.0026 0.9555 -0.2948
vn -0.0035 0.9571 -0.2896
vn 0.0276 0.9996 0.0033
vn 0.0396 0.9845 0.1707
vn 0.0252 0.9447 -0.3269
vn 0.0326 0.9778 -0.2072
vn 0.0074 0.9335 -0.3585
vn 0.0652 0.7591 -0.6477
vn -0.0696 0.9960 -0.0564
vn -0.0600 0.8587 -0.5089
vt 0.170213 0.733333
vt 0.212766 0.600000
vt 0.170213 0.600000
vt 0.127660 0.466667
vt 0.170213 0.333333
vt 0.127660 0.333333
vt 0.255319 0.789474
vt 0.212766 0.733333
vt 0.212766 0.866667
vt 0.127660 0.866667
vt 0.085106 0.866667
vt 0.063830 0.333333
vt 0.085106 0.200000
vt 0.063830 0.200000
vt 0.127660 0.200000
vt 0.085106 0.333333
vt 0.127660 0.733333
vt 0.255319 0.578947
vt 0.212766 0.466667
vt 0.212766 0.866667
vt 0.170213 0.866667
vt 0.063830 0.866667
vt 0.042553 0.866667
vt 0.063830 0.866667
vt 0.063830 0.733333
vt 0.085106 0.600000
vt 0.063830 0.600000
vt 0.170213 0.098718
vt 0.127660 0.098718
vt 0.127660 0.600000
vt 0.085106 0.733333
vt 0.170213 0.200000
vt 0.212766 0.098718
vt 0.170213 0.466667
vt 0.212766 0.333333
vt 0.085106 0.466667
vt 0.063830 0.466667
vt 0.085106 0.098718
vt 0.063830 0.098718
vt 0.212766 0.200000
vt 0.085106 0.433333
vt 0.106383 0.433333
vt 0.255319 0.473684
vt 0.255319 0.368421
vt 0.000000 0.000000
vt 0.255319 0.157895
vt 0.255319 0.263158
vt 0.255319 0.947368
vt 0.255319 0.894737
vt 0.255319 0.684211
vt 0.255319 0.842105
vt 0.085106 0.157895
vt 0.063830 0.433333
vt 0.031915 0.433333
vt 0.255319 1.000000
vt 0.042553 0.433333
vt 0.042553 0.866667
vt 0.085106 0.866667
vt 0.255319 1.000000
vt 0.021277 0.433333
vt 0.042553 0.733333
vt 0.042553 0.200000
vt 0.042553 0.098718
vt 0.042553 0.466667
vt 0.042553 0.333333
vt 0.042553 0.600000
s 1
g off
g Hood_ONELVXE|Misc_Car_Paint
usemtl ONELVXE|Misc_Car_Paint
f 21/1/1 27/2/2 20/3/3
f 126/4/4 18/5/5 127/6/6
f 39/7/7 28/8/8 29/9/9
f 133/10/10 16/11/11 124/10/12
f 113/12/13 7/13/14 112/14/15
f 125/15/16 8/16/17 127/6/6
f 129/10/18 21/1/1 130/17/19
f 38/18/20 26/19/21 27/2/2
f 98/20/22 15/21/23 14/9/24
f 122/22/25 31/23/26 120/24/27
f 116/25/28 10/26/29 115/27/30
f 125/15/16 32/28/31 123/29/32
f 128/30/33 11/31/34 130/17/19
f 17/32/35 33/33/36 32/28/31
f 19/34/37 25/35/38 18/5/5
f 128/30/33 19/34/37 126/4/4
f 20/3/3 26/19/21 19/34/37
f 22/21/39 28/8/8 21/1/1
f 115/27/30 9/36/40 114/37/41
f 114/37/41 8/16/17 113/12/13
f 112/14/15 30/38/42 119/39/43
f 117/22/44 11/31/34 116/25/28
f 18/5/5 24/40/45 17/32/35
f 14/9/24 92/41/46 90/42/47
f 25/35/38 61/43/48 37/44/49
f 38/18/20 66/45/50 43/45/51
f 58/45/52 36/46/53 57/47/54
f 48/45/55 62/45/56 43/45/51
f 93/48/57 70/45/58 69/49/59
f 44/45/60 65/50/61 39/7/7
f 42/45/62 57/47/54 37/44/49
f 49/45/63 66/45/50 44/45/60
f 42/45/62 59/45/64 58/45/52
f 68/45/65 48/45/55 67/45/66
f 59/45/64 51/45/67 46/45/68
f 191/45/69 64/45/70 53/45/71
f 96/45/72 71/45/73 95/45/74
f 54/45/75 67/45/66 49/45/63
f 47/45/76 60/45/77 59/45/64
f 192/45/78 68/45/65 54/45/75
f 52/45/79 199/45/80 60/45/77
f 37/44/49 24/40/45 25/35/38
f 53/45/71 63/45/81 48/45/55
f 64/45/70 47/45/76 63/45/81
f 43/45/51 61/43/48 38/18/20
f 37/44/49 62/45/56 42/45/62
f 60/45/77 189/45/82 51/45/67
f 105/45/83 49/45/63 104/45/84
f 58/45/52 46/45/68 41/45/85
f 103/45/86 39/7/7 102/51/87
f 36/46/53 77/45/88 33/52/36
f 209/45/89 53/45/71 68/45/65
f 64/45/70 190/45/90 52/45/79
f 67/45/66 43/45/51 66/45/50
f 42/45/62 63/45/81 47/45/76
f 57/47/54 33/33/36 24/40/45
f 242/45/91 72/45/92 96/45/72
f 252/45/93 54/45/75 105/45/83
f 95/45/74 70/45/58 94/45/94
f 104/45/84 44/45/60 103/45/86
f 65/50/61 27/2/2 28/8/8
f 131/45/95 92/41/46 132/53/96
f 121/54/97 16/11/11 120/24/27
f 51/45/67 215/45/98 73/45/99
f 74/45/100 51/45/67 73/45/99
f 75/45/101 46/45/68 74/45/100
f 76/45/102 41/45/85 75/45/101
f 33/52/36 77/45/88 32/28/31
f 35/45/103 83/45/104 78/45/105
f 55/45/106 81/45/107 82/45/108
f 50/45/109 80/45/110 81/45/107
f 90/42/47 69/49/59 14/9/24
f 45/45/111 79/55/112 80/45/110
f 102/51/87 29/9/9 98/20/22
f 55/45/106 226/45/113 193/45/114
f 107/45/115 87/45/116 88/45/117
f 109/45/118 85/55/119 86/45/120
f 78/45/105 40/55/121 35/45/103
f 258/45/122 88/45/117 233/45/123
f 106/45/124 86/45/120 87/45/116
f 110/45/125 79/55/112 78/45/105
f 110/45/125 89/45/126 84/45/127
f 35/45/103 93/48/57 90/42/47
f 118/45/128 97/56/129 121/54/97
f 132/53/96 15/21/23 124/10/12
f 45/45/111 95/45/74 94/45/94
f 193/45/114 96/45/72 55/45/106
f 50/45/109 96/45/72 95/45/74
f 40/55/121 94/45/94 93/48/57
f 90/42/47 56/45/130 35/45/103
f 14/9/24 102/51/87 98/20/22
f 71/45/73 103/45/86 70/45/58
f 214/45/131 105/45/83 72/45/92
f 103/45/86 69/49/59 70/45/58
f 72/45/92 104/45/84 71/45/73
f 117/22/44 100/57/132 122/22/25
f 29/9/9 99/21/133 98/20/22
f 129/10/18 101/58/134 133/10/10
f 78/45/105 111/45/135 110/45/125
f 84/45/127 108/59/136 110/45/125
f 81/45/107 109/45/118 106/45/124
f 226/45/113 107/45/115 258/45/122
f 80/45/110 108/59/136 109/45/118
f 82/45/108 106/45/124 107/45/115
f 12/11/137 122/22/25 101/58/134
f 13/45/138 121/54/97 91/60/139
f 91/60/139 120/24/27 31/23/26
f 6/23/140 116/25/28 5/61/141
f 1/62/142 119/39/43 34/63/143
f 3/64/144 113/12/13 2/65/145
f 4/66/146 114/37/41 3/64/144
f 5/61/141 115/27/30 4/66/146
f 101/58/134 120/24/27 16/11/11
f 2/65/145 112/14/15 1/62/142
f 22/21/39 133/10/10 99/21/133
f 97/56/129 124/10/12 16/11/11
f 23/45/147 132/53/96 97/56/129
f 10/26/29 126/4/4 9/36/40
f 20/3/3 130/17/19 21/1/1
f 7/13/14 123/29/32 30/38/42
f 12/11/137 130/17/19 11/31/34
f 17/32/35 127/6/6 18/5/5
f 99/21/133 124/10/12 15/21/23
f 9/36/40 127/6/6 8/16/17
f 154/1/148 160/2/149 161/8/150
f 274/4/151 151/5/152 152/34/153
f 161/8/150 172/7/154 162/9/155
f 281/10/156 149/11/157 247/58/158
f 140/13/159 261/12/160 260/14/161
f 273/15/162 141/16/163 140/13/159
f 277/10/164 154/1/148 155/21/165
f 159/19/166 171/18/167 160/2/149
f 244/20/168 148/21/169 245/21/170
f 270/22/171 164/23/172 246/57/173
f 143/26/174 264/25/175 263/27/176
f 273/15/162 165/28/177 150/32/178
f 276/30/179 144/31/180 143/26/174
f 166/33/181 150/32/178 165/28/177
f 158/35/182 152/34/153 151/5/152
f 276/30/179 152/34/153 153/3/183
f 159/19/166 153/3/183 152/34/153
f 161/8/150 155/21/165 154/1/148
f 142/36/184 263/27/176 262/37/185
f 141/16/163 262/37/185 261/12/160
f 163/38/186 260/14/161 267/39/187
f 144/31/180 265/22/188 264/25/175
f 151/5/152 157/40/189 158/35/182
f 237/41/190 147/9/191 235/42/192
f 200/43/193 158/35/182 170/44/194
f 206/45/195 171/18/167 176/45/196
f 196/45/197 169/46/198 174/45/199
f 201/45/200 181/45/201 176/45/196
f 238/48/202 211/45/203 239/45/204
f 205/50/205 177/45/206 172/7/154
f 195/47/207 175/45/208 170/44/194
f 206/45/195 182/45/209 177/45/206
f 175/45/208 197/45/210 180/45/211
f 181/45/201 208/45/212 207/45/213
f 197/45/210 184/45/214 198/45/215
f 203/45/216 191/45/69 186/45/217
f 212/45/218 241/45/219 240/45/220
f 207/45/213 187/45/221 182/45/209
f 180/45/211 198/45/215 185/45/222
f 208/45/212 192/45/78 187/45/221
f 185/45/222 199/45/80 190/45/90
f 170/44/194 157/40/189 195/47/207
f 202/45/223 186/45/217 181/45/201
f 180/45/211 203/45/216 202/45/223
f 200/43/193 176/45/196 171/18/167
f 201/45/200 170/44/194 175/45/208
f 198/45/215 189/45/82 199/45/80
f 251/45/224 182/45/209 187/45/221
f 196/45/197 179/45/225 197/45/210
f 249/45/226 172/7/154 177/45/206
f 220/45/227 169/46/198 166/52/181
f 186/45/217 209/45/89 208/45/212
f 203/45/216 190/45/90 204/45/228
f 207/45/213 176/45/196 181/45/201
f 202/45/223 175/45/208 180/45/211
f 166/33/181 195/47/207 157/40/189
f 213/45/229 242/45/91 241/45/219
f 187/45/221 252/45/93 251/45/224
f 211/45/203 240/45/220 239/45/204
f 250/45/230 177/45/206 182/45/209
f 160/2/149 205/50/205 161/8/150
f 237/41/190 279/45/231 280/53/232
f 269/54/233 149/11/157 243/56/234
f 215/45/98 184/45/214 216/45/235
f 217/45/236 184/45/214 179/45/225
f 218/45/237 179/45/225 174/45/199
f 219/45/238 174/45/199 169/46/198
f 166/52/181 165/28/177 220/45/227
f 168/45/239 227/45/240 194/45/241
f 188/45/242 224/45/243 183/45/244
f 183/45/244 223/45/245 178/45/246
f 235/42/192 210/49/247 238/48/202
f 178/45/246 222/55/248 173/55/249
f 162/9/155 248/51/250 244/20/168
f 226/45/113 188/45/242 193/45/114
f 254/45/251 231/45/252 253/45/253
f 256/45/254 229/55/255 255/59/256
f 173/55/249 221/45/257 168/45/239
f 258/45/122 232/45/258 254/45/251
f 253/45/253 230/45/259 256/45/254
f 257/45/260 222/55/248 255/59/256
f 257/45/260 234/45/261 259/45/262
f 168/45/239 238/48/202 173/55/249
f 266/45/263 243/56/234 156/45/264
f 148/21/169 280/53/232 272/10/265
f 178/45/246 240/45/220 183/45/244
f 241/45/219 193/45/114 188/45/242
f 183/45/244 241/45/219 188/45/242
f 173/55/249 239/45/204 178/45/246
f 194/45/241 235/42/192 168/45/239
f 147/9/191 248/51/250 210/49/247
f 212/45/218 249/45/226 250/45/230
f 251/45/224 214/45/131 213/45/229
f 210/49/247 249/45/226 211/45/203
f 213/45/229 250/45/230 251/45/224
f 265/22/188 246/57/173 139/23/266
f 162/9/155 245/21/170 155/21/165
f 277/10/164 247/58/158 145/11/267
f 221/45/257 259/45/262 227/45/240
f 228/45/268 255/59/256 229/55/255
f 224/45/243 256/45/254 223/45/245
f 226/45/113 254/45/251 225/45/269
f 223/45/245 255/59/256 222/55/248
f 225/45/269 253/45/253 224/45/243
f 145/11/267 270/22/171 265/22/188
f 146/45/270 269/54/233 266/45/263
f 236/60/271 268/24/272 269/54/233
f 264/25/175 139/23/266 138/61/273
f 267/39/187 134/62/274 167/63/275
f 261/12/160 136/64/276 135/65/277
f 262/37/185 137/66/278 136/64/276
f 263/27/176 138/61/273 137/66/278
f 247/58/158 268/24/272 270/22/171
f 260/14/161 135/65/277 134/62/274
f 155/21/165 281/10/156 277/10/164
f 272/10/265 243/56/234 149/11/157
f 280/53/232 156/45/264 243/56/234
f 143/26/174 274/4/151 276/30/179
f 153/3/183 278/17/279 276/30/179
f 140/13/159 271/29/280 273/15/162
f 145/11/267 278/17/279 277/10/164
f 150/32/178 275/6/281 273/15/162
f 245/21/170 272/10/265 281/10/156
f 142/36/184 275/6/281 274/4/151
f 21/1/1 28/8/8 27/2/2
f 126/4/4 19/34/37 18/5/5
f 39/7/7 65/50/61 28/8/8
f 133/10/10 101/58/134 16/11/11
f 113/12/13 8/16/17 7/13/14
f 125/15/16 7/13/14 8/16/17
f 129/10/18 22/21/39 21/1/1
f 38/18/20 61/43/48 26/19/21
f 98/20/22 99/21/133 15/21/23
f 122/22/25 100/57/132 31/23/26
f 116/25/28 11/31/34 10/26/29
f 125/15/16 17/32/35 32/28/31
f 128/30/33 10/26/29 11/31/34
f 17/32/35 24/40/45 33/33/36
f 19/34/37 26/19/21 25/35/38
f 128/30/33 20/3/3 19/34/37
f 20/3/3 27/2/2 26/19/21
f 22/21/39 29/9/9 28/8/8
f 115/27/30 10/26/29 9/36/40
f 114/37/41 9/36/40 8/16/17
f 112/14/15 7/13/14 30/38/42
f 117/22/44 12/11/137 11/31/34
f 18/5/5 25/35/38 24/40/45
f 14/9/24 15/21/23 92/41/46
f 25/35/38 26/19/21 61/43/48
f 38/18/20 65/50/61 66/45/50
f 58/45/52 41/45/85 36/46/53
f 48/45/55 63/45/81 62/45/56
f 93/48/57 94/45/94 70/45/58
f 44/45/60 66/45/50 65/50/61
f 42/45/62 58/45/52 57/47/54
f 49/45/63 67/45/66 66/45/50
f 42/45/62 47/45/76 59/45/64
f 68/45/65 53/45/71 48/45/55
f 59/45/64 60/45/77 51/45/67
f 191/45/69 204/45/228 64/45/70
f 96/45/72 72/45/92 71/45/73
f 54/45/75 68/45/65 67/45/66
f 47/45/76 52/45/79 60/45/77
f 192/45/78 209/45/89 68/45/65
f 52/45/79 190/45/90 199/45/80
f 37/44/49 57/47/54 24/40/45
f 53/45/71 64/45/70 63/45/81
f 64/45/70 52/45/79 47/45/76
f 43/45/51 62/45/56 61/43/48
f 37/44/49 61/43/48 62/45/56
f 60/45/77 199/45/80 189/45/82
f 105/45/83 54/45/75 49/45/63
f 58/45/52 59/45/64 46/45/68
f 103/45/86 44/45/60 39/7/7
f 36/46/53 76/45/102 77/45/88
f 209/45/89 191/45/69 53/45/71
f 64/45/70 204/45/228 190/45/90
f 67/45/66 48/45/55 43/45/51
f 42/45/62 62/45/56 63/45/81
f 57/47/54 36/46/53 33/33/36
f 242/45/91 214/45/131 72/45/92
f 252/45/93 192/45/78 54/45/75
f 95/45/74 71/45/73 70/45/58
f 104/45/84 49/45/63 44/45/60
f 65/50/61 38/18/20 27/2/2
f 131/45/95 56/45/130 92/41/46
f 121/54/97 97/56/129 16/11/11
f 51/45/67 189/45/82 215/45/98
f 74/45/100 46/45/68 51/45/67
f 75/45/101 41/45/85 46/45/68
f 76/45/102 36/46/53 41/45/85
f 35/45/103 56/45/130 83/45/104
f 55/45/106 50/45/109 81/45/107
f 50/45/109 45/45/111 80/45/110
f 90/42/47 93/48/57 69/49/59
f 45/45/111 40/55/121 79/55/112
f 102/51/87 39/7/7 29/9/9
f 55/45/106 82/45/108 226/45/113
f 107/45/115 106/45/124 87/45/116
f 109/45/118 108/59/136 85/55/119
f 78/45/105 79/55/112 40/55/121
f 258/45/122 107/45/115 88/45/117
f 106/45/124 109/45/118 86/45/120
f 110/45/125 108/59/136 79/55/112
f 110/45/125 111/45/135 89/45/126
f 35/45/103 40/55/121 93/48/57
f 118/45/128 23/45/147 97/56/129
f 132/53/96 92/41/46 15/21/23
f 45/45/111 50/45/109 95/45/74
f 193/45/114 242/45/91 96/45/72
f 50/45/109 55/45/106 96/45/72
f 40/55/121 45/45/111 94/45/94
f 90/42/47 92/41/46 56/45/130
f 14/9/24 69/49/59 102/51/87
f 71/45/73 104/45/84 103/45/86
f 214/45/131 252/45/93 105/45/83
f 103/45/86 102/51/87 69/49/59
f 72/45/92 105/45/83 104/45/84
f 117/22/44 6/23/140 100/57/132
f 29/9/9 22/21/39 99/21/133
f 129/10/18 12/11/137 101/58/134
f 78/45/105 83/45/104 111/45/135
f 84/45/127 85/55/119 108/59/136
f 81/45/107 80/45/110 109/45/118
f 226/45/113 82/45/108 107/45/115
f 80/45/110 79/55/112 108/59/136
f 82/45/108 81/45/107 106/45/124
f 12/11/137 117/22/44 122/22/25
f 13/45/138 118/45/128 121/54/97
f 91/60/139 121/54/97 120/24/27
f 6/23/140 117/22/44 116/25/28
f 1/62/142 112/14/15 119/39/43
f 3/64/144 114/37/41 113/12/13
f 4/66/146 115/27/30 114/37/41
f 5/61/141 116/25/28 115/27/30
f 101/58/134 122/22/25 120/24/27
f 2/65/145 113/12/13 112/14/15
f 22/21/39 129/10/18 133/10/10
f 97/56/129 132/53/96 124/10/12
f 23/45/147 131/45/95 132/53/96
f 10/26/29 128/30/33 126/4/4
f 20/3/3 128/30/33 130/17/19
f 7/13/14 125/15/16 123/29/32
f 12/11/137 129/10/18 130/17/19
f 17/32/35 125/15/16 127/6/6
f 99/21/133 133/10/10 124/10/12
f 9/36/40 126/4/4 127/6/6
f 154/1/148 153/3/183 160/2/149
f 274/4/151 275/6/281 151/5/152
f 161/8/150 205/50/205 172/7/154
f 281/10/156 272/10/265 149/11/157
f 140/13/159 141/16/163 261/12/160
f 273/15/162 275/6/281 141/16/163
f 277/10/164 278/17/279 154/1/148
f 159/19/166 200/43/193 171/18/167
f 244/20/168 147/9/191 148/21/169
f 270/22/171 268/24/272 164/23/172
f 143/26/174 144/31/180 264/25/175
f 273/15/162 271/29/280 165/28/177
f 276/30/179 278/17/279 144/31/180
f 166/33/181 157/40/189 150/32/178
f 158/35/182 159/19/166 152/34/153
f 276/30/179 274/4/151 152/34/153
f 159/19/166 160/2/149 153/3/183
f 161/8/150 162/9/155 155/21/165
f 142/36/184 143/26/174 263/27/176
f 141/16/163 142/36/184 262/37/185
f 163/38/186 140/13/159 260/14/161
f 144/31/180 145/11/267 265/22/188
f 151/5/152 150/32/178 157/40/189
f 237/41/190 148/21/169 147/9/191
f 200/43/193 159/19/166 158/35/182
f 206/45/195 205/50/205 171/18/167
f 196/45/197 195/47/207 169/46/198
f 201/45/200 202/45/223 181/45/201
f 238/48/202 210/49/247 211/45/203
f 205/50/205 206/45/195 177/45/206
f 195/47/207 196/45/197 175/45/208
f 206/45/195 207/45/213 182/45/209
f 175/45/208 196/45/197 197/45/210
f 181/45/201 186/45/217 208/45/212
f 197/45/210 179/45/225 184/45/214
f 203/45/216 204/45/228 191/45/69
f 212/45/218 213/45/229 241/45/219
f 207/45/213 208/45/212 187/45/221
f 180/45/211 197/45/210 198/45/215
f 208/45/212 209/45/89 192/45/78
f 185/45/222 198/45/215 199/45/80
f 170/44/194 158/35/182 157/40/189
f 202/45/223 203/45/216 186/45/217
f 180/45/211 185/45/222 203/45/216
f 200/43/193 201/45/200 176/45/196
f 201/45/200 200/43/193 170/44/194
f 198/45/215 184/45/214 189/45/82
f 251/45/224 250/45/230 182/45/209
f 196/45/197 174/45/199 179/45/225
f 249/45/226 248/51/250 172/7/154
f 220/45/227 219/45/238 169/46/198
f 186/45/217 191/45/69 209/45/89
f 203/45/216 185/45/222 190/45/90
f 207/45/213 206/45/195 176/45/196
f 202/45/223 201/45/200 175/45/208
f 166/33/181 169/46/198 195/47/207
f 213/45/229 214/45/131 242/45/91
f 187/45/221 192/45/78 252/45/93
f 211/45/203 212/45/218 240/45/220
f 250/45/230 249/45/226 177/45/206
f 160/2/149 171/18/167 205/50/205
f 237/41/190 194/45/241 279/45/231
f 269/54/233 268/24/272 149/11/157
f 215/45/98 189/45/82 184/45/214
f 217/45/236 216/45/235 184/45/214
f 218/45/237 217/45/236 179/45/225
f 219/45/238 218/45/237 174/45/199
f 168/45/239 221/45/257 227/45/240
f 188/45/242 225/45/269 224/45/243
f 183/45/244 224/45/243 223/45/245
f 235/42/192 147/9/191 210/49/247
f 178/45/246 223/45/245 222/55/248
f 162/9/155 172/7/154 248/51/250
f 226/45/113 225/45/269 188/45/242
f 254/45/251 232/45/258 231/45/252
f 256/45/254 230/45/259 229/55/255
f 173/55/249 222/55/248 221/45/257
f 258/45/122 233/45/123 232/45/258
f 253/45/253 231/45/252 230/45/259
f 257/45/260 221/45/257 222/55/248
f 257/45/260 228/45/268 234/45/261
f 168/45/239 235/42/192 238/48/202
f 266/45/263 269/54/233 243/56/234
f 148/21/169 237/41/190 280/53/232
f 178/45/246 239/45/204 240/45/220
f 241/45/219 242/45/91 193/45/114
f 183/45/244 240/45/220 241/45/219
f 173/55/249 238/48/202 239/45/204
f 194/45/241 237/41/190 235/42/192
f 147/9/191 244/20/168 248/51/250
f 212/45/218 211/45/203 249/45/226
f 251/45/224 252/45/93 214/45/131
f 210/49/247 248/51/250 249/45/226
f 213/45/229 212/45/218 250/45/230
f 265/22/188 270/22/171 246/57/173
f 162/9/155 244/20/168 245/21/170
f 277/10/164 281/10/156 247/58/158
f 221/45/257 257/45/260 259/45/262
f 228/45/268 257/45/260 255/59/256
f 224/45/243 253/45/253 256/45/254
f 226/45/113 258/45/122 254/45/251
f 223/45/245 256/45/254 255/59/256
f 225/45/269 254/45/251 253/45/253
f 145/11/267 247/58/158 270/22/171
f 146/45/270 236/60/271 269/54/233
f 236/60/271 164/23/172 268/24/272
f 264/25/175 265/22/188 139/23/266
f 267/39/187 260/14/161 134/62/274
f 261/12/160 262/37/185 136/64/276
f 262/37/185 263/27/176 137/66/278
f 263/27/176 264/25/175 138/61/273
f 247/58/158 149/11/157 268/24/272
f 260/14/161 261/12/160 135/65/277
f 155/21/165 245/21/170 281/10/156
f 272/10/265 280/53/232 243/56/234
f 280/53/232 279/45/231 156/45/264
f 143/26/174 142/36/184 274/4/151
f 153/3/183 154/1/148 278/17/279
f 140/13/159 163/38/186 271/29/280
f 145/11/267 144/31/180 278/17/279
f 150/32/178 151/5/152 275/6/281
f 245/21/170 148/21/169 272/10/265
f 142/36/184 141/16/163 275/6/281
