# Blender 5.0.1
# www.blender.org
mtllib cofre_t.mtl
o cofre
v -0.012403 0.032090 -0.554963
v -0.127649 0.038109 -0.554991
v -0.249251 0.044014 -0.554645
v -0.372862 0.046366 -0.554288
v -0.498474 0.045730 -0.553463
v -0.609585 0.043635 -0.553778
v -0.023945 0.027381 -0.516002
v -0.130602 0.022889 -0.517442
v -0.249546 0.022865 -0.518706
v -0.371577 0.023865 -0.517323
v -0.497954 0.025746 -0.511059
v -0.609975 0.027657 -0.499651
v -0.755683 0.039824 -0.552182
v -0.706027 -0.046312 -0.404006
v -0.719328 -0.028574 -0.446937
v -0.718592 0.017514 -0.482028
v -0.029988 0.020512 -0.491297
v -0.134609 0.006804 -0.490770
v -0.251770 -0.003501 -0.491979
v -0.369381 -0.005271 -0.486091
v -0.496262 -0.006681 -0.472761
v -0.607283 -0.011384 -0.458792
v -0.761926 0.006223 -0.472688
v -0.046088 0.021262 -0.451558
v -0.145044 0.009606 -0.453508
v -0.257864 -0.003859 -0.460481
v -0.370188 -0.009893 -0.456545
v -0.487186 -0.017013 -0.442116
v -0.592703 -0.026124 -0.425955
v 0.076432 0.033290 -0.517556
v -0.719427 0.040000 -0.553016
v 0.059772 0.030811 -0.488636
v 0.029099 0.028626 -0.452006
v 0.081114 0.028528 -0.553804
v -0.780824 -0.081006 -0.379644
v 0.016108 0.040417 -0.370565
v -0.160948 0.034210 -0.368495
v -0.374914 0.016723 -0.363690
v -0.580696 -0.010910 -0.344098
v -0.797363 -0.083512 -0.295957
v 0.001189 0.055101 -0.272438
v -0.167705 0.052803 -0.270975
v -0.377168 0.034333 -0.267205
v -0.582692 0.002594 -0.255417
v -0.805540 -0.082542 -0.222184
v -0.016692 0.068412 -0.176647
v -0.174584 0.064425 -0.176162
v -0.380133 0.044772 -0.175474
v -0.586784 0.011609 -0.168897
v -0.811502 -0.081509 -0.148505
v -0.032095 0.078024 -0.084804
v -0.184795 0.071644 -0.084877
v -0.385049 0.051074 -0.085906
v -0.590216 0.017301 -0.083332
v -0.816080 -0.080793 -0.072666
v -0.765600 -0.061068 -0.440656
v -0.062501 0.036488 -0.369761
v -0.073656 0.053023 -0.271808
v -0.085244 0.066032 -0.176408
v -0.098708 0.074508 -0.084781
v -0.267941 0.025714 -0.367948
v -0.271299 0.044634 -0.269415
v -0.275628 0.055600 -0.176010
v -0.282966 0.062283 -0.085467
v -0.481256 0.003503 -0.354680
v -0.482886 0.019013 -0.261739
v -0.486348 0.028697 -0.172507
v -0.490357 0.034713 -0.084858
v -0.697423 -0.042532 -0.319989
v -0.701112 -0.034238 -0.238431
v -0.706193 -0.026197 -0.158494
v -0.710168 -0.021269 -0.077924
v 0.009726 0.083509 -0.084839
v 0.015904 0.075114 -0.176857
v 0.027850 0.061822 -0.272739
v 0.040964 0.046667 -0.369919
v 0.051493 0.034665 -0.449859
v -0.784995 -0.096466 -0.376405
v -0.804490 -0.100418 -0.293786
v -0.813170 -0.100482 -0.220827
v -0.819196 -0.100002 -0.147556
v -0.823814 -0.099521 -0.072008
v -0.773533 -0.083305 -0.441325
v -0.782011 -0.110782 -0.373281
v -0.798362 -0.107977 -0.290715
v -0.807076 -0.107536 -0.216616
v -0.813071 -0.107056 -0.143386
v -0.817652 -0.106576 -0.067789
v -0.769814 -0.108460 -0.427937
v -0.746902 -0.063236 -0.391270
v -0.740710 0.039981 -0.552353
v -0.745337 -0.044363 -0.441845
v -0.750776 -0.062837 -0.307146
v -0.756747 -0.058335 -0.229778
v -0.762297 -0.053780 -0.153174
v -0.766600 -0.051001 -0.075115
v -0.741660 0.013504 -0.475923
v -0.653900 -0.035697 -0.414693
v -0.669462 -0.019191 -0.452153
v -0.673483 0.041573 -0.553914
v -0.670509 0.023362 -0.490370
v -0.642137 -0.026343 -0.332295
v -0.645074 -0.015283 -0.247083
v -0.649670 -0.006526 -0.163814
v -0.653302 -0.001114 -0.080732
v -0.816638 -0.104760 -0.145463
v -0.821256 -0.104279 -0.069915
v -0.802233 -0.105465 -0.291834
v -0.810612 -0.105241 -0.218734
v -0.783812 -0.103410 -0.375201
v -0.774457 -0.097888 -0.439484
v -0.017899 0.031811 -0.532696
v -0.129471 0.033066 -0.533490
v -0.249750 0.036564 -0.533961
v -0.372786 0.038231 -0.533279
v -0.498762 0.038878 -0.530047
v -0.611785 0.038896 -0.523958
v -0.757619 0.031173 -0.508019
v 0.081524 0.032083 -0.533199
v -0.720175 0.032302 -0.514118
v -0.741355 0.032414 -0.510735
v -0.672460 0.035896 -0.518812
v 0.072514 0.032563 -0.506184
v -0.720697 -0.004764 -0.463768
v -0.027163 0.023871 -0.503847
v -0.250901 0.009426 -0.504645
v -0.132625 0.014422 -0.504364
v -0.370937 0.009247 -0.500963
v -0.610224 0.009167 -0.478299
v -0.498492 0.010023 -0.491125
v -0.762796 -0.027870 -0.450559
v -0.744211 -0.016706 -0.458701
v -0.671651 0.002983 -0.470444
v -0.012403 0.032090 0.566716
v -0.127649 0.038109 0.566745
v -0.249251 0.044014 0.566399
v -0.372862 0.046366 0.566041
v -0.498474 0.045729 0.565216
v -0.609586 0.043635 0.565532
v -0.023945 0.027381 0.527756
v -0.130602 0.022889 0.529195
v -0.249546 0.022864 0.530460
v -0.371577 0.023865 0.529077
v -0.497954 0.025745 0.522813
v -0.609975 0.027656 0.511405
v -0.755683 0.039823 0.563936
v -0.706027 -0.046312 0.415760
v -0.719328 -0.028574 0.458690
v -0.718592 0.017514 0.493782
v -0.029988 0.020512 0.503051
v -0.134610 0.006804 0.502523
v -0.251770 -0.003501 0.503732
v -0.369381 -0.005271 0.497845
v -0.496262 -0.006682 0.484515
v -0.607283 -0.011384 0.470545
v -0.761926 0.006223 0.484441
v -0.046088 0.021262 0.463312
v -0.145044 0.009606 0.465261
v -0.257864 -0.003859 0.472235
v -0.370188 -0.009893 0.468298
v -0.487186 -0.017013 0.453869
v -0.592703 -0.026124 0.437708
v 0.076432 0.033289 0.529310
v -0.719427 0.040000 0.564769
v 0.059771 0.030811 0.500390
v 0.029099 0.028626 0.463759
v 0.081114 0.028528 0.565557
v -0.780824 -0.081006 0.391397
v 0.016108 0.040417 0.382318
v -0.160948 0.034210 0.380248
v -0.374914 0.016723 0.375443
v -0.580696 -0.010910 0.355852
v -0.797363 -0.083512 0.307710
v 0.001189 0.055100 0.284192
v -0.167706 0.052803 0.282728
v -0.377168 0.034333 0.278958
v -0.582692 0.002594 0.267171
v -0.805540 -0.082542 0.233937
v -0.016693 0.068412 0.188400
v -0.174584 0.064425 0.187916
v -0.380133 0.044772 0.187228
v -0.586784 0.011609 0.180650
v -0.811502 -0.081509 0.160258
v -0.032095 0.078024 0.096557
v -0.184795 0.071644 0.096630
v -0.385049 0.051074 0.097659
v -0.590217 0.017301 0.095085
v -0.816080 -0.080793 0.084420
v -0.044525 0.083186 0.005877
v -0.195941 0.075299 0.005877
v -0.390188 0.054085 0.005877
v -0.590538 0.020645 0.005877
v -0.816101 -0.079460 0.005877
v -0.765600 -0.061068 0.452410
v -0.062502 0.036488 0.381514
v -0.073656 0.053023 0.283562
v -0.085244 0.066032 0.188162
v -0.098708 0.074508 0.096534
v -0.112264 0.079478 0.005877
v -0.267941 0.025714 0.379702
v -0.271299 0.044634 0.281168
v -0.275628 0.055600 0.187764
v -0.282966 0.062283 0.097221
v -0.290847 0.065852 0.005877
v -0.481256 0.003503 0.366433
v -0.482886 0.019013 0.273492
v -0.486348 0.028696 0.184260
v -0.490358 0.034713 0.096612
v -0.493717 0.037941 0.005877
v -0.697423 -0.042532 0.331743
v -0.701112 -0.034238 0.250184
v -0.706193 -0.026197 0.170247
v -0.710168 -0.021269 0.089677
v -0.712261 -0.017732 0.005877
v 0.000280 0.086581 0.005877
v 0.009726 0.083509 0.096592
v 0.015904 0.075114 0.188610
v 0.027850 0.061822 0.284492
v 0.040964 0.046667 0.381673
v 0.051493 0.034665 0.461612
v -0.784995 -0.096467 0.388158
v -0.804491 -0.100418 0.305539
v -0.813170 -0.100482 0.232580
v -0.819197 -0.100002 0.159309
v -0.823815 -0.099521 0.083761
v -0.825966 -0.098438 0.005877
v -0.773533 -0.083305 0.453079
v -0.782012 -0.110783 0.385034
v -0.798363 -0.107977 0.302469
v -0.807076 -0.107536 0.228370
v -0.813071 -0.107056 0.155139
v -0.817652 -0.106576 0.079542
v -0.820243 -0.105994 0.005877
v -0.769814 -0.108460 0.439690
v -0.746902 -0.063236 0.403023
v -0.740710 0.039980 0.564107
v -0.745337 -0.044363 0.453598
v -0.750776 -0.062837 0.318900
v -0.756747 -0.058335 0.241532
v -0.762297 -0.053780 0.164928
v -0.766600 -0.051001 0.086869
v -0.768807 -0.048459 0.005877
v -0.741660 0.013504 0.487676
v -0.653900 -0.035697 0.426447
v -0.669462 -0.019192 0.463906
v -0.673483 0.041573 0.565667
v -0.670509 0.023361 0.502124
v -0.642137 -0.026343 0.344049
v -0.645074 -0.015283 0.258837
v -0.649670 -0.006526 0.175567
v -0.653302 -0.001114 0.092486
v -0.655403 0.002846 0.005877
v -0.816638 -0.104760 0.157216
v -0.821256 -0.104279 0.081668
v -0.802233 -0.105465 0.303587
v -0.810612 -0.105241 0.230487
v -0.783812 -0.103410 0.386955
v -0.823523 -0.103896 0.005877
v -0.774457 -0.097889 0.451237
v -0.017899 0.031811 0.544449
v -0.129471 0.033065 0.545243
v -0.249750 0.036564 0.545715
v -0.372786 0.038231 0.545033
v -0.498763 0.038878 0.541800
v -0.611785 0.038896 0.535712
v -0.757619 0.031173 0.519773
v 0.081524 0.032083 0.544953
v -0.720176 0.032302 0.525872
v -0.741355 0.032414 0.522489
v -0.672460 0.035895 0.530566
v 0.072514 0.032563 0.517937
v -0.720697 -0.004764 0.475522
v -0.027163 0.023871 0.515600
v -0.250901 0.009426 0.516399
v -0.132625 0.014422 0.516117
v -0.370937 0.009247 0.512717
v -0.610224 0.009166 0.490053
v -0.498492 0.010023 0.502878
v -0.762796 -0.027870 0.462313
v -0.744211 -0.016706 0.470454
v -0.671651 0.002983 0.482197
vn 0.0260 0.8778 0.4783
vn -0.0508 0.9985 -0.0217
vn 0.0077 0.9227 0.3853
vn -0.0168 0.7242 0.6894
vn -0.0917 0.9787 0.1837
vn -0.0599 0.8587 0.5089
vn -0.2023 0.9663 -0.1592
vn -0.0604 0.9951 0.0778
vn -0.1029 0.9829 0.1528
vn 0.0152 0.6645 0.7471
vn 0.0071 0.8087 0.5882
vn -0.0284 0.5751 0.8176
vn 0.0116 0.9306 0.3658
vn -0.0421 0.9633 0.2651
vn 0.0008 0.9918 0.1276
vn -0.0816 0.9646 0.2507
vn -0.0279 0.8443 0.5352
vn 0.0481 0.7211 0.6911
vn 0.0652 0.7591 0.6477
vn -0.1119 0.9659 -0.2333
vn -0.0729 0.9896 -0.1243
vn -0.1461 0.9733 0.1771
vn -0.1529 0.7347 0.6610
vn -0.2697 0.9452 0.1838
vn -0.0291 0.9585 0.2837
vn -0.0196 0.9829 0.1833
vn 0.0026 0.9555 0.2948
vn 0.0144 0.9131 0.4076
vn 0.0251 0.7496 0.6614
vn 0.0116 0.8679 0.4967
vn -0.1143 0.9934 0.0065
vn -0.0696 0.9960 0.0564
vn 0.0366 0.7342 0.6779
vn 0.0501 0.8111 0.5828
vn -0.1097 0.9890 0.0991
vn -0.1489 0.9807 -0.1265
vn -0.0461 0.9512 0.3050
vn -0.1003 0.9756 -0.1955
vn -0.0038 0.8204 0.5718
vn -0.0026 0.7408 0.6718
vn 0.0153 0.8755 0.4829
vn -0.0310 0.9995 0.0032
vn 0.0134 0.9947 -0.1018
vn 0.0031 0.9581 0.2863
vn -0.0995 0.9834 -0.1518
vn -0.3073 0.6421 0.7023
vn -0.4093 0.9051 0.1148
vn -0.0870 0.9654 -0.2458
vn -0.0589 0.9732 -0.2222
vn -0.1576 0.9774 -0.1405
vn -0.1222 0.9811 -0.1497
vn -0.0180 0.9884 -0.1505
vn -0.1297 0.9773 -0.1673
vn -0.0395 0.9833 -0.1775
vn -0.1258 0.9873 -0.0968
vn -0.0896 0.9838 -0.1550
vn -0.4016 0.9135 -0.0644
vn -0.3702 0.9230 -0.1055
vn -0.3352 0.9398 -0.0663
vn -0.2209 0.9660 -0.1344
vn -0.1440 0.9692 -0.1998
vn -0.0435 0.9871 -0.1542
vn -0.2207 0.9709 -0.0929
vn -0.0265 0.9927 -0.1173
vn -0.1632 0.9849 -0.0580
vn -0.1607 0.9825 -0.0940
vn -0.0881 0.9928 -0.0806
vn -0.1095 0.9846 -0.1362
vn -0.1334 0.9911 -0.0000
vn -0.1022 0.9926 -0.0650
vn -0.1298 0.9898 -0.0592
vn -0.4897 0.8707 -0.0462
vn -0.3880 0.9169 -0.0936
vn -0.4603 0.8849 -0.0716
vn -0.2206 0.9736 -0.0579
vn -0.0526 0.9930 -0.1060
vn -0.0417 0.9961 -0.0773
vn -0.2150 0.9766 -0.0000
vn -0.0637 0.9955 -0.0695
vn -0.0492 0.9988 -0.0000
vn -0.0946 0.9904 -0.1009
vn -0.0638 0.9980 -0.0000
vn -0.3082 0.9493 -0.0627
vn -0.3082 0.9466 -0.0949
vn -0.1210 0.9793 -0.1622
vn -0.3064 0.9439 -0.1237
vn -0.2657 0.9583 -0.1051
vn -0.2418 0.9564 -0.1637
vn -0.1646 0.9864 -0.0000
vn -0.0736 0.9973 -0.0000
vn -0.5081 0.8613 -0.0000
vn -0.3969 0.9158 -0.0613
vn -0.3025 0.9531 -0.0000
vn -0.4260 0.9011 -0.0812
vn 0.0353 0.5013 0.8646
vn -0.0368 0.5450 0.8376
vn 0.0125 0.9529 0.3031
vn -0.0854 0.9963 -0.0000
vn -0.1297 0.9889 -0.0725
vn -0.1925 0.9709 -0.1423
vn -0.2384 0.9547 -0.1778
vn -0.2362 0.9554 -0.1771
vn -0.7362 0.6747 -0.0527
vn -0.9658 0.2188 -0.1394
vn -0.9831 0.0192 -0.1819
vn -0.7108 0.7026 -0.0343
vn -0.9932 -0.0920 -0.0713
vn -0.9951 -0.0886 -0.0445
vn -0.6996 0.7119 -0.0610
vn -0.9904 -0.0966 -0.0991
vn -0.6739 0.7343 -0.0818
vn -0.9822 -0.0759 -0.1718
vn -1.0000 0.0089 -0.0000
vn -0.6976 0.7165 -0.0000
vn -0.6831 -0.7299 -0.0261
vn -0.5281 -0.8486 -0.0309
vn -0.5303 -0.8476 -0.0171
vn -0.6731 -0.7368 -0.0632
vn -0.5294 -0.8458 -0.0661
vn -0.5248 -0.8500 -0.0448
vn -0.6612 0.7424 -0.1077
vn -0.7090 -0.7052 -0.0000
vn -0.5392 -0.8422 -0.0000
vn -0.6786 -0.7332 -0.0442
vn -0.9413 -0.2665 -0.2070
vn -0.8379 -0.5178 -0.1728
vn -0.9276 -0.3065 -0.2135
vn -0.0235 0.9263 0.3761
vn -0.0532 0.7450 0.6649
vn -0.6411 0.7203 0.2649
vn -0.3997 0.9167 -0.0000
vn -0.0323 0.9867 0.1591
vn -0.0514 0.7873 0.6144
vn 0.0026 0.8414 0.5403
vn -0.9641 -0.2020 -0.1725
vn -0.6950 -0.7113 -0.1047
vn 0.0379 0.8560 0.5156
vn -0.0127 0.9835 0.1802
vn 0.0017 0.9826 0.1857
vn -0.0133 0.9851 0.1715
vn -0.0035 0.9571 0.2896
vn 0.0276 0.9996 -0.0033
vn 0.0396 0.9845 -0.1707
vn 0.0252 0.9447 0.3269
vn 0.0326 0.9778 0.2072
vn 0.0074 0.9335 0.3585
vn -0.0734 0.5842 0.8083
vn 0.0260 0.8778 -0.4783
vn -0.0508 0.9985 0.0217
vn -0.0604 0.9951 -0.0778
vn -0.0168 0.7242 -0.6894
vn -0.0917 0.9787 -0.1837
vn -0.0461 0.9512 -0.3050
vn -0.2023 0.9663 0.1592
vn -0.1029 0.9829 -0.1528
vn 0.0152 0.6645 -0.7471
vn 0.0071 0.8087 -0.5882
vn 0.0026 0.8415 -0.5403
vn -0.0421 0.9633 -0.2651
vn 0.0116 0.9306 -0.3657
vn 0.0008 0.9918 -0.1276
vn -0.0816 0.9645 -0.2510
vn -0.0279 0.8443 -0.5352
vn 0.0481 0.7212 -0.6911
vn -0.0038 0.8204 -0.5718
vn -0.0729 0.9896 0.1243
vn -0.1119 0.9659 0.2333
vn -0.1461 0.9733 -0.1771
vn -0.1529 0.7347 -0.6610
vn -0.0514 0.7873 -0.6144
vn -0.0291 0.9585 -0.2837
vn -0.0196 0.9829 -0.1833
vn -0.0324 0.9867 -0.1593
vn 0.0251 0.7496 -0.6614
vn 0.0144 0.9131 -0.4076
vn 0.0116 0.8679 -0.4967
vn -0.1143 0.9934 -0.0065
vn -0.1097 0.9890 -0.0991
vn 0.0366 0.7341 -0.6780
vn 0.0501 0.8111 -0.5828
vn -0.1489 0.9807 0.1265
vn -0.1003 0.9755 0.1956
vn 0.0077 0.9227 -0.3853
vn -0.0026 0.7407 -0.6718
vn 0.0153 0.8755 -0.4829
vn -0.0310 0.9995 -0.0032
vn 0.0134 0.9947 0.1018
vn 0.0031 0.9581 -0.2863
vn -0.0995 0.9834 0.1518
vn -0.3073 0.6421 -0.7023
vn -0.2697 0.9452 -0.1838
vn -0.4093 0.9051 -0.1148
vn -0.0870 0.9654 0.2458
vn -0.0589 0.9732 0.2222
vn -0.1576 0.9774 0.1405
vn -0.1222 0.9812 0.1497
vn -0.0182 0.9884 0.1507
vn -0.1297 0.9773 0.1673
vn -0.1210 0.9793 0.1622
vn -0.0894 0.9839 0.1547
vn -0.1256 0.9873 0.0968
vn -0.4016 0.9135 0.0644
vn -0.3702 0.9230 0.1055
vn -0.4260 0.9011 0.0812
vn -0.1440 0.9692 0.1998
vn -0.2209 0.9660 0.1344
vn -0.0395 0.9833 0.1775
vn -0.0435 0.9871 0.1542
vn -0.2207 0.9709 0.0929
vn -0.0265 0.9927 0.1173
vn -0.0526 0.9930 0.1060
vn -0.1632 0.9849 0.0580
vn -0.1607 0.9825 0.0940
vn -0.0881 0.9928 0.0806
vn -0.0415 0.9961 0.0774
vn -0.1022 0.9926 0.0650
vn -0.1300 0.9897 0.0592
vn -0.3880 0.9169 0.0936
vn -0.4897 0.8707 0.0462
vn -0.4603 0.8849 0.0716
vn -0.2206 0.9736 0.0579
vn -0.0639 0.9955 0.0695
vn -0.0946 0.9904 0.1009
vn -0.3082 0.9493 0.0627
vn -0.1095 0.9846 0.1362
vn -0.3062 0.9439 0.1239
vn -0.2418 0.9564 0.1637
vn -0.1088 0.9941 -0.0000
vn -0.3969 0.9158 0.0613
vn -0.3082 0.9466 0.0949
vn 0.0353 0.5013 -0.8646
vn -0.0368 0.5450 -0.8376
vn 0.0125 0.9529 -0.3031
vn -0.0532 0.7450 -0.6649
vn -0.1297 0.9889 0.0725
vn -0.1925 0.9709 0.1423
vn -0.2385 0.9547 0.1778
vn -0.2363 0.9555 0.1768
vn -0.7362 0.6747 0.0527
vn -0.9658 0.2188 0.1394
vn -0.6411 0.7203 -0.2649
vn -0.7108 0.7026 0.0343
vn -0.9932 -0.0920 0.0713
vn -0.6996 0.7119 0.0610
vn -0.9904 -0.0966 0.0991
vn -0.6739 0.7343 0.0818
vn -0.3354 0.9397 0.0664
vn -0.9822 -0.0759 0.1718
vn -0.6612 0.7424 0.1077
vn -0.2657 0.9583 0.1051
vn -0.6831 -0.7299 0.0261
vn -0.5281 -0.8486 0.0309
vn -0.6786 -0.7332 0.0442
vn -0.6731 -0.7368 0.0632
vn -0.5294 -0.8457 0.0665
vn -0.6950 -0.7113 0.1047
vn -0.9831 0.0192 0.1819
vn -0.5303 -0.8476 0.0171
vn -0.5248 -0.8500 0.0448
vn -0.9413 -0.2665 0.2070
vn -0.8379 -0.5178 0.1728
vn -0.9641 -0.2020 0.1725
vn -0.0235 0.9263 -0.3761
vn -0.0734 0.5842 -0.8083
vn -0.0284 0.5751 -0.8176
vn -0.0133 0.9851 -0.1715
vn 0.0379 0.8560 -0.5156
vn -0.9276 -0.3065 0.2135
vn -0.9951 -0.0886 0.0445
vn -0.0127 0.9835 -0.1802
vn 0.0017 0.9826 -0.1857
vn 0.0026 0.9556 -0.2948
vn -0.0035 0.9571 -0.2896
vn 0.0276 0.9996 0.0033
vn 0.0396 0.9845 0.1707
vn 0.0252 0.9447 -0.3269
vn 0.0326 0.9778 -0.2072
vn 0.0074 0.9335 -0.3585
vn 0.0652 0.7591 -0.6477
vn -0.0696 0.9960 -0.0564
vn -0.0600 0.8587 -0.5089
vt 0.342598 0.525526
vt 0.346247 0.544834
vt 0.308941 0.540542
vt 0.340936 0.560547
vt 0.304078 0.566773
vt 0.339170 0.573375
vt 0.348908 0.522562
vt 0.342813 0.528872
vt 0.351997 0.517414
vt 0.359621 0.509410
vt 0.355245 0.500955
vt 0.363764 0.502637
vt 0.329106 0.571886
vt 0.333649 0.583719
vt 0.328549 0.583116
vt 0.298094 0.577405
vt 0.334661 0.572776
vt 0.355086 0.517643
vt 0.348700 0.531780
vt 0.335647 0.548501
vt 0.315637 0.557792
vt 0.358548 0.507438
vt 0.371582 0.504650
vt 0.335139 0.498468
vt 0.339521 0.504179
vt 0.327326 0.492912
vt 0.342296 0.497139
vt 0.333155 0.528332
vt 0.337251 0.545705
vt 0.330866 0.544384
vt 0.301116 0.586847
vt 0.335010 0.593743
vt 0.343675 0.546964
vt 0.340714 0.530136
vt 0.301914 0.577762
vt 0.311662 0.586146
vt 0.305702 0.553779
vt 0.305291 0.568802
vt 0.349414 0.511335
vt 0.335532 0.559854
vt 0.329675 0.558874
vt 0.331826 0.593233
vt 0.327640 0.592412
vt 0.336575 0.512868
vt 0.313206 0.578721
vt 0.375314 0.501244
vt 0.341817 0.493251
vt 0.331485 0.560927
vt 0.328705 0.572749
vt 0.371149 0.541303
vt 0.365021 0.554457
vt 0.353728 0.587424
vt 0.324626 0.590267
vt 0.326421 0.582661
vt 0.393526 0.559815
vt 0.360473 0.566818
vt 0.369820 0.499636
vt 0.389966 0.511828
vt 0.362478 0.506974
vt 0.377754 0.528147
vt 0.341878 0.535450
vt 0.356561 0.578116
vt 0.406366 0.533229
vt 0.380885 0.591894
vt 0.428133 0.551510
vt 0.399779 0.546547
vt 0.404493 0.602160
vt 0.378339 0.598415
vt 0.450611 0.569460
vt 0.416299 0.576538
vt 0.421681 0.564662
vt 0.449445 0.512564
vt 0.417128 0.516397
vt 0.422661 0.508078
vt 0.434810 0.538256
vt 0.384303 0.583038
vt 0.407497 0.595784
vt 0.464237 0.543829
vt 0.411496 0.587235
vt 0.434132 0.599441
vt 0.388611 0.572011
vt 0.430529 0.605879
vt 0.439811 0.529380
vt 0.411800 0.524484
vt 0.351513 0.594539
vt 0.383852 0.519641
vt 0.355601 0.514423
vt 0.301434 0.586174
vt 0.457469 0.556621
vt 0.438793 0.591133
vt 0.477024 0.517530
vt 0.444599 0.521116
vt 0.468900 0.534664
vt 0.396348 0.503845
vt 0.371444 0.497551
vt 0.367156 0.499548
vt 0.343857 0.494067
vt 0.428217 0.610055
vt 0.402587 0.606237
vt 0.376942 0.601748
vt 0.350440 0.597333
vt 0.324021 0.592917
vt 0.348007 0.488955
vt 0.379295 0.497125
vt 0.349102 0.489640
vt 0.453708 0.504954
vt 0.428623 0.499367
vt 0.454412 0.503589
vt 0.427606 0.500670
vt 0.403455 0.495494
vt 0.402106 0.496724
vt 0.378216 0.492043
vt 0.480713 0.508318
vt 0.480285 0.510078
vt 0.457225 0.565613
vt 0.457239 0.565616
vt 0.457225 0.565613
vt 0.457254 0.565620
vt 0.457268 0.565624
vt 0.457254 0.565620
vt 0.376450 0.493107
vt 0.457211 0.565609
vt 0.457211 0.565609
vt 0.457240 0.565617
vt 0.449054 0.568803
vt 0.449280 0.568829
vt 0.449049 0.568801
vt 0.457284 0.565628
vt 0.457294 0.565630
vt 0.457284 0.565628
vt 0.345254 0.491696
vt 0.358303 0.497967
vt 0.377604 0.498313
vt 0.473025 0.526271
vt 0.326395 0.500210
vt 0.367735 0.511564
vt 0.350782 0.507520
vt 0.495772 0.591660
vt 0.457268 0.565624
vt 0.404161 0.495975
vt 0.429227 0.499832
vt 0.454912 0.504037
vt 0.480406 0.508583
vt 0.452440 0.569598
vt 0.452453 0.569601
vt 0.452439 0.569597
vt 0.346072 0.515608
vt 0.328009 0.486963
vt 0.327779 0.489461
vt 0.325652 0.510079
vt 0.324628 0.526122
vt 0.322251 0.581843
vt 0.322355 0.590604
vt 0.322665 0.557289
vt 0.322370 0.570416
vt 0.323367 0.542566
vt 0.360598 0.495097
vt 0.603779 0.581535
vt 0.584609 0.593342
vt 0.592724 0.580240
vt 0.572475 0.606173
vt 0.556949 0.615381
vt 0.582691 0.606643
vt 0.573888 0.564605
vt 0.599393 0.567220
vt 0.611673 0.559906
vt 0.623603 0.555463
vt 0.620148 0.562248
vt 0.554499 0.626900
vt 0.569625 0.619659
vt 0.558559 0.628456
vt 0.551417 0.625839
vt 0.564736 0.618088
vt 0.606612 0.567997
vt 0.612670 0.568169
vt 0.574559 0.604492
vt 0.559909 0.589505
vt 0.602499 0.558946
vt 0.607268 0.551160
vt 0.617821 0.560046
vt 0.631100 0.564381
vt 0.649912 0.560878
vt 0.643362 0.566705
vt 0.590419 0.596460
vt 0.611130 0.585084
vt 0.596454 0.598105
vt 0.554730 0.634272
vt 0.548206 0.624801
vt 0.598941 0.596762
vt 0.603949 0.583323
vt 0.547809 0.630146
vt 0.562617 0.614911
vt 0.593344 0.595247
vt 0.577225 0.607883
vt 0.582557 0.609551
vt 0.560796 0.636977
vt 0.564257 0.637958
vt 0.624437 0.572100
vt 0.553793 0.623744
vt 0.607490 0.546914
vt 0.604659 0.551495
vt 0.604201 0.544913
vt 0.551279 0.600703
vt 0.542126 0.610999
vt 0.540045 0.572514
vt 0.532460 0.585057
vt 0.509109 0.615046
vt 0.528162 0.626219
vt 0.503771 0.621443
vt 0.524143 0.596422
vt 0.505475 0.580272
vt 0.577727 0.539284
vt 0.551951 0.542525
vt 0.553633 0.533858
vt 0.567332 0.577127
vt 0.547158 0.559799
vt 0.534159 0.619588
vt 0.516251 0.606727
vt 0.520442 0.554548
vt 0.483935 0.610218
vt 0.490177 0.602008
vt 0.486064 0.562217
vt 0.513117 0.567492
vt 0.455196 0.611132
vt 0.459194 0.604983
vt 0.471338 0.586497
vt 0.478635 0.575072
vt 0.526842 0.537198
vt 0.503941 0.522974
vt 0.529328 0.528444
vt 0.493304 0.549190
vt 0.464658 0.596766
vt 0.497541 0.591713
vt 0.497330 0.540213
vt 0.479413 0.616287
vt 0.549943 0.550903
vt 0.545663 0.632174
vt 0.444396 0.580903
vt 0.500784 0.531772
vt 0.523984 0.545606
vt 0.614453 0.545874
vt 0.615740 0.549233
vt 0.638278 0.555047
vt 0.624461 0.551946
vt 0.452781 0.615087
vt 0.477435 0.619467
vt 0.502104 0.624068
vt 0.526275 0.628563
vt 0.603135 0.539196
vt 0.607080 0.541799
vt 0.608098 0.543603
vt 0.506603 0.515122
vt 0.530883 0.519037
vt 0.531351 0.520603
vt 0.554171 0.524463
vt 0.554928 0.526066
vt 0.577197 0.547654
vt 0.576807 0.530175
vt 0.577977 0.531763
vt 0.575978 0.555900
vt 0.457136 0.565592
vt 0.457121 0.565587
vt 0.457121 0.565587
vt 0.457106 0.565582
vt 0.457092 0.565577
vt 0.457091 0.565577
vt 0.601218 0.537935
vt 0.457197 0.565605
vt 0.457197 0.565605
vt 0.457107 0.565582
vt 0.600068 0.537786
vt 0.575535 0.530211
vt 0.614427 0.542574
vt 0.619686 0.543056
vt 0.639702 0.552701
vt 0.625488 0.548788
vt 0.615424 0.553055
vt 0.634162 0.574395
vt 0.615234 0.570258
vt 0.457076 0.565571
vt 0.552915 0.524560
vt 0.505334 0.513738
vt 0.506425 0.513599
vt 0.529707 0.519154
vt 0.655350 0.556178
vt 0.653038 0.558128
vt 0.636182 0.557967
vt 0.618961 0.586853
vt 0.563860 0.629926
vt 0.554769 0.636572
vt 0.588906 0.611152
vt 0.575596 0.621201
vt 0.603353 0.599749
vt 0.596508 0.581242
vt 0.558203 0.636128
vt 0.560875 0.616713
vt 0.452805 0.569586
vt 0.452811 0.569584
vt 0.452812 0.569587
vt 0.457291 0.565578
vt 0.505999 0.589857
vt 0.457278 0.565577
vt 0.381026 0.497245
vt 0.448390 0.551875
vt 0.442479 0.550989
vt 0.442626 0.551061
vt 0.457137 0.565592
vt 0.454173 0.569794
vt 0.454163 0.569791
vt 0.454188 0.569796
vt 0.458977 0.565814
vt 0.458987 0.565817
vt 0.458949 0.565809
s 1
usemtl cofre
f 21/1/1 27/2/2 20/3/3
f 126/4/4 18/5/5 127/6/6
f 39/7/7 28/8/8 29/9/9
f 133/10/10 16/11/11 124/12/12
f 113/13/13 7/14/14 112/15/15
f 125/16/16 8/17/17 127/6/6
f 129/18/18 21/1/1 130/19/19
f 38/20/20 26/21/21 27/2/2
f 98/22/22 15/23/23 14/24/24
f 122/25/25 31/26/26 120/27/27
f 116/28/28 10/29/29 115/30/30
f 125/16/16 32/31/31 123/32/32
f 128/33/33 11/34/34 130/19/19
f 17/35/35 33/36/36 32/31/31
f 19/37/37 25/38/38 18/5/5
f 128/33/33 19/37/37 126/4/4
f 20/3/3 26/21/21 19/37/37
f 22/39/39 28/8/8 21/1/1
f 115/30/30 9/40/40 114/41/41
f 114/41/41 8/17/17 113/13/13
f 112/15/15 30/42/42 119/43/43
f 117/44/44 11/34/34 116/28/28
f 18/5/5 24/45/45 17/35/35
f 14/24/24 92/46/46 90/47/47
f 25/38/38 61/48/48 37/49/49
f 38/20/20 66/50/50 43/51/51
f 58/52/52 36/53/53 57/54/54
f 48/55/55 62/56/56 43/51/51
f 93/57/57 70/58/58 69/59/59
f 44/60/60 65/61/61 39/7/7
f 42/62/62 57/54/54 37/49/49
f 49/63/63 66/50/50 44/60/60
f 42/62/62 59/64/64 58/52/52
f 68/65/65 48/55/55 67/66/66
f 59/64/64 51/67/67 46/68/68
f 191/69/69 64/70/70 53/71/71
f 96/72/72 71/73/73 95/74/74
f 54/75/75 67/66/66 49/63/63
f 47/76/76 60/77/77 59/64/64
f 192/78/78 68/65/65 54/75/75
f 52/79/79 199/80/80 60/77/77
f 37/49/49 24/45/45 25/38/38
f 53/71/71 63/81/81 48/55/55
f 64/70/70 47/76/76 63/81/81
f 43/51/51 61/48/48 38/20/20
f 37/49/49 62/56/56 42/62/62
f 60/77/77 189/82/82 51/67/67
f 105/83/83 49/63/63 104/84/84
f 58/52/52 46/68/68 41/85/85
f 103/86/86 39/7/7 102/87/87
f 36/53/53 77/88/88 33/36/36
f 209/89/89 53/71/71 68/65/65
f 64/70/70 190/90/90 52/79/79
f 67/66/66 43/51/51 66/50/50
f 42/62/62 63/81/81 47/76/76
f 57/54/54 33/36/36 24/45/45
f 242/91/91 72/92/92 96/72/72
f 252/93/93 54/75/75 105/83/83
f 95/74/74 70/58/58 94/94/94
f 104/84/84 44/60/60 103/86/86
f 65/61/61 27/2/2 28/8/8
f 131/95/95 92/46/46 132/96/96
f 121/97/97 16/11/11 120/27/27
f 51/67/67 215/98/98 73/99/99
f 74/100/100 51/67/67 73/99/99
f 75/101/101 46/68/68 74/100/100
f 76/102/102 41/85/85 75/101/101
f 33/36/36 77/88/88 32/31/31
f 35/103/103 83/104/104 78/105/105
f 55/106/106 81/107/107 82/108/108
f 50/109/109 80/110/110 81/107/107
f 90/47/47 69/59/59 14/24/24
f 45/111/111 79/112/112 80/110/110
f 102/87/87 29/9/9 98/22/22
f 55/106/106 226/113/113 193/114/114
f 107/115/115 87/116/116 88/117/117
f 109/118/118 85/119/119 86/120/120
f 78/105/105 40/121/121 35/103/103
f 258/122/122 88/117/117 233/123/123
f 106/124/124 86/120/120 87/116/116
f 110/125/125 79/126/112 78/127/105
f 110/128/125 89/129/126 84/130/127
f 35/103/103 93/57/57 90/47/47
f 118/131/128 97/132/129 121/97/97
f 132/96/96 15/23/23 124/12/12
f 45/111/111 95/74/74 94/94/94
f 193/114/114 96/72/72 55/106/106
f 50/109/109 96/72/72 95/74/74
f 40/121/121 94/94/94 93/57/57
f 90/47/47 56/133/130 35/103/103
f 14/24/24 102/87/87 98/22/22
f 71/73/73 103/86/86 70/58/58
f 214/134/131 105/83/83 72/92/92
f 103/86/86 69/59/59 70/58/58
f 72/92/92 104/84/84 71/73/73
f 117/44/44 100/135/132 122/25/25
f 29/9/9 99/136/133 98/22/22
f 129/18/18 101/137/134 133/10/10
f 78/127/105 111/138/135 110/125/125
f 84/130/127 108/139/136 110/128/125
f 81/107/107 109/140/118 106/141/124
f 226/113/113 107/142/115 258/143/122
f 80/144/110 108/145/136 109/146/118
f 82/108/108 106/141/124 107/142/115
f 12/147/137 122/25/25 101/137/134
f 13/148/138 121/97/97 91/149/139
f 91/149/139 120/27/27 31/26/26
f 6/150/140 116/28/28 5/151/141
f 1/152/142 119/43/43 34/153/143
f 3/154/144 113/13/13 2/155/145
f 4/156/146 114/41/41 3/154/144
f 5/151/141 115/30/30 4/156/146
f 101/137/134 120/27/27 16/11/11
f 2/155/145 112/15/15 1/152/142
f 22/39/39 133/10/10 99/136/133
f 97/132/129 124/12/12 16/11/11
f 23/157/147 132/96/96 97/132/129
f 10/29/29 126/4/4 9/40/40
f 20/3/3 130/19/19 21/1/1
f 7/14/14 123/32/32 30/42/42
f 12/147/137 130/19/19 11/34/34
f 17/35/35 127/6/6 18/5/5
f 99/136/133 124/12/12 15/23/23
f 9/40/40 127/6/6 8/17/17
f 154/158/148 160/159/149 161/160/150
f 274/161/151 151/162/152 152/163/153
f 161/160/150 172/164/154 162/165/155
f 281/166/156 149/167/157 247/168/158
f 140/169/159 261/170/160 260/171/161
f 273/172/162 141/173/163 140/169/159
f 277/174/164 154/158/148 155/175/165
f 159/176/166 171/177/167 160/159/149
f 244/178/168 148/179/169 245/180/170
f 270/181/171 164/182/172 246/183/173
f 143/184/174 264/185/175 263/186/176
f 273/172/162 165/187/177 150/188/178
f 276/189/179 144/190/180 143/184/174
f 166/191/181 150/188/178 165/187/177
f 158/192/182 152/163/153 151/162/152
f 276/189/179 152/163/153 153/193/183
f 159/176/166 153/193/183 152/163/153
f 161/160/150 155/175/165 154/158/148
f 142/194/184 263/186/176 262/195/185
f 141/173/163 262/195/185 261/170/160
f 163/196/186 260/171/161 267/197/187
f 144/190/180 265/198/188 264/185/175
f 151/162/152 157/199/189 158/192/182
f 237/200/190 147/201/191 235/202/192
f 200/203/193 158/192/182 170/204/194
f 206/205/195 171/177/167 176/206/196
f 196/207/197 169/208/198 174/209/199
f 201/210/200 181/211/201 176/206/196
f 238/212/202 211/213/203 239/214/204
f 205/215/205 177/216/206 172/164/154
f 195/217/207 175/218/208 170/204/194
f 206/205/195 182/219/209 177/216/206
f 175/218/208 197/220/210 180/221/211
f 181/211/201 208/222/212 207/223/213
f 197/220/210 184/224/214 198/225/215
f 203/226/216 191/69/69 186/227/217
f 212/228/218 241/229/219 240/230/220
f 207/223/213 187/231/221 182/219/209
f 180/221/211 198/225/215 185/232/222
f 208/222/212 192/78/78 187/231/221
f 185/232/222 199/80/80 190/90/90
f 170/204/194 157/199/189 195/217/207
f 202/233/223 186/227/217 181/211/201
f 180/221/211 203/226/216 202/233/223
f 200/203/193 176/206/196 171/177/167
f 201/210/200 170/204/194 175/218/208
f 198/225/215 189/82/82 199/80/80
f 251/234/224 182/219/209 187/231/221
f 196/207/197 179/235/225 197/220/210
f 249/236/226 172/164/154 177/216/206
f 220/237/227 169/208/198 166/191/181
f 186/227/217 209/89/89 208/222/212
f 203/226/216 190/90/90 204/238/228
f 207/223/213 176/206/196 181/211/201
f 202/233/223 175/218/208 180/221/211
f 166/191/181 195/217/207 157/199/189
f 213/239/229 242/91/91 241/229/219
f 187/231/221 252/93/93 251/234/224
f 211/213/203 240/230/220 239/214/204
f 250/240/230 177/216/206 182/219/209
f 160/159/149 205/215/205 161/160/150
f 237/200/190 279/241/231 280/242/232
f 269/243/233 149/167/157 243/244/234
f 215/98/98 184/224/214 216/245/235
f 217/246/236 184/224/214 179/235/225
f 218/247/237 179/235/225 174/209/199
f 219/248/238 174/209/199 169/208/198
f 166/191/181 165/187/177 220/237/227
f 168/249/239 227/250/240 194/251/241
f 188/252/242 224/253/243 183/254/244
f 183/254/244 223/255/245 178/256/246
f 235/202/192 210/257/247 238/212/202
f 178/256/246 222/258/248 173/259/249
f 162/165/155 248/260/250 244/178/168
f 226/113/113 188/252/242 193/114/114
f 254/261/251 231/262/252 253/263/253
f 256/264/254 229/265/255 255/266/256
f 173/259/249 221/267/257 168/249/239
f 258/122/122 232/268/258 254/269/251
f 253/263/253 230/270/259 256/264/254
f 257/271/260 222/258/248 255/272/256
f 257/271/260 234/273/261 259/274/262
f 168/249/239 238/212/202 173/259/249
f 266/275/263 243/244/234 156/276/264
f 148/179/169 280/242/232 272/277/265
f 178/256/246 240/230/220 183/254/244
f 241/229/219 193/114/114 188/252/242
f 183/254/244 241/229/219 188/252/242
f 173/259/249 239/214/204 178/256/246
f 194/251/241 235/202/192 168/249/239
f 147/201/191 248/260/250 210/257/247
f 212/228/218 249/236/226 250/240/230
f 251/234/224 214/134/131 213/239/229
f 210/257/247 249/236/226 211/213/203
f 213/239/229 250/240/230 251/234/224
f 265/198/188 246/183/173 139/278/266
f 162/165/155 245/180/170 155/175/165
f 277/174/164 247/168/158 145/279/267
f 221/267/257 259/274/262 227/250/240
f 228/280/268 255/266/256 229/265/255
f 224/253/243 256/281/254 223/255/245
f 226/113/113 254/282/251 225/283/269
f 223/255/245 255/272/256 222/258/248
f 225/283/269 253/284/253 224/253/243
f 145/279/267 270/181/171 265/198/188
f 146/285/270 269/243/233 266/275/263
f 236/286/271 268/287/272 269/243/233
f 264/185/175 139/278/266 138/288/273
f 267/197/187 134/289/274 167/290/275
f 261/170/160 136/291/276 135/292/277
f 262/195/185 137/293/278 136/291/276
f 263/186/176 138/288/273 137/293/278
f 247/168/158 268/287/272 270/181/171
f 260/171/161 135/292/277 134/289/274
f 155/175/165 281/166/156 277/174/164
f 272/277/265 243/244/234 149/167/157
f 280/242/232 156/276/264 243/244/234
f 143/184/174 274/161/151 276/189/179
f 153/193/183 278/294/279 276/189/179
f 140/169/159 271/295/280 273/172/162
f 145/279/267 278/294/279 277/174/164
f 150/188/178 275/296/281 273/172/162
f 245/180/170 272/277/265 281/166/156
f 142/194/184 275/296/281 274/161/151
f 21/1/1 28/8/8 27/2/2
f 126/4/4 19/37/37 18/5/5
f 39/7/7 65/61/61 28/8/8
f 133/10/10 101/137/134 16/11/11
f 113/13/13 8/17/17 7/14/14
f 125/16/16 7/14/14 8/17/17
f 129/18/18 22/39/39 21/1/1
f 38/20/20 61/48/48 26/21/21
f 98/22/22 99/136/133 15/23/23
f 122/25/25 100/135/132 31/26/26
f 116/28/28 11/34/34 10/29/29
f 125/16/16 17/35/35 32/31/31
f 128/33/33 10/29/29 11/34/34
f 17/35/35 24/45/45 33/36/36
f 19/37/37 26/21/21 25/38/38
f 128/33/33 20/3/3 19/37/37
f 20/3/3 27/2/2 26/21/21
f 22/39/39 29/9/9 28/8/8
f 115/30/30 10/29/29 9/40/40
f 114/41/41 9/40/40 8/17/17
f 112/15/15 7/14/14 30/42/42
f 117/44/44 12/147/137 11/34/34
f 18/5/5 25/38/38 24/45/45
f 14/24/24 15/23/23 92/46/46
f 25/38/38 26/21/21 61/48/48
f 38/20/20 65/61/61 66/50/50
f 58/52/52 41/85/85 36/53/53
f 48/55/55 63/81/81 62/56/56
f 93/57/57 94/94/94 70/58/58
f 44/60/60 66/50/50 65/61/61
f 42/62/62 58/52/52 57/54/54
f 49/63/63 67/66/66 66/50/50
f 42/62/62 47/76/76 59/64/64
f 68/65/65 53/71/71 48/55/55
f 59/64/64 60/77/77 51/67/67
f 191/69/69 204/238/228 64/70/70
f 96/72/72 72/92/92 71/73/73
f 54/75/75 68/65/65 67/66/66
f 47/76/76 52/79/79 60/77/77
f 192/78/78 209/89/89 68/65/65
f 52/79/79 190/90/90 199/80/80
f 37/49/49 57/54/54 24/45/45
f 53/71/71 64/70/70 63/81/81
f 64/70/70 52/79/79 47/76/76
f 43/51/51 62/56/56 61/48/48
f 37/49/49 61/48/48 62/56/56
f 60/77/77 199/80/80 189/82/82
f 105/83/83 54/75/75 49/63/63
f 58/52/52 59/64/64 46/68/68
f 103/86/86 44/60/60 39/7/7
f 36/53/53 76/102/102 77/88/88
f 209/89/89 191/69/69 53/71/71
f 64/70/70 204/238/228 190/90/90
f 67/66/66 48/55/55 43/51/51
f 42/62/62 62/56/56 63/81/81
f 57/54/54 36/53/53 33/36/36
f 242/91/91 214/134/131 72/92/92
f 252/93/93 192/78/78 54/75/75
f 95/74/74 71/73/73 70/58/58
f 104/84/84 49/63/63 44/60/60
f 65/61/61 38/20/20 27/2/2
f 131/95/95 56/133/130 92/46/46
f 121/97/97 97/132/129 16/11/11
f 51/67/67 189/82/82 215/98/98
f 74/100/100 46/68/68 51/67/67
f 75/101/101 41/85/85 46/68/68
f 76/102/102 36/53/53 41/85/85
f 35/103/103 56/133/130 83/104/104
f 55/106/106 50/109/109 81/107/107
f 50/109/109 45/111/111 80/110/110
f 90/47/47 93/57/57 69/59/59
f 45/111/111 40/121/121 79/112/112
f 102/87/87 39/7/7 29/9/9
f 55/106/106 82/108/108 226/113/113
f 107/115/115 106/124/124 87/116/116
f 109/118/118 108/139/136 85/119/119
f 78/105/105 79/112/112 40/121/121
f 258/122/122 107/115/115 88/117/117
f 106/124/124 109/118/118 86/120/120
f 110/297/125 108/298/136 79/299/112
f 110/300/125 111/301/135 89/302/126
f 35/103/103 40/121/121 93/57/57
f 118/131/128 23/157/147 97/132/129
f 132/96/96 92/46/46 15/23/23
f 45/111/111 50/109/109 95/74/74
f 193/114/114 242/91/91 96/72/72
f 50/109/109 55/106/106 96/72/72
f 40/121/121 45/111/111 94/94/94
f 90/47/47 92/46/46 56/133/130
f 14/24/24 69/59/59 102/87/87
f 71/73/73 104/84/84 103/86/86
f 214/134/131 252/93/93 105/83/83
f 103/86/86 102/87/87 69/59/59
f 72/92/92 105/83/83 104/84/84
f 117/44/44 6/150/140 100/135/132
f 29/9/9 22/39/39 99/136/133
f 129/18/18 12/147/137 101/137/134
f 78/105/105 83/104/104 111/303/135
f 84/130/127 85/119/119 108/139/136
f 81/107/107 80/110/110 109/140/118
f 226/113/113 82/108/108 107/142/115
f 80/304/110 79/305/112 108/306/136
f 82/108/108 81/107/107 106/141/124
f 12/147/137 117/44/44 122/25/25
f 13/148/138 118/131/128 121/97/97
f 91/149/139 121/97/97 120/27/27
f 6/150/140 117/44/44 116/28/28
f 1/152/142 112/15/15 119/43/43
f 3/154/144 114/41/41 113/13/13
f 4/156/146 115/30/30 114/41/41
f 5/151/141 116/28/28 115/30/30
f 101/137/134 122/25/25 120/27/27
f 2/155/145 113/13/13 112/15/15
f 22/39/39 129/18/18 133/10/10
f 97/132/129 132/96/96 124/12/12
f 23/157/147 131/95/95 132/96/96
f 10/29/29 128/33/33 126/4/4
f 20/3/3 128/33/33 130/19/19
f 7/14/14 125/16/16 123/32/32
f 12/147/137 129/18/18 130/19/19
f 17/35/35 125/16/16 127/6/6
f 99/136/133 133/10/10 124/12/12
f 9/40/40 126/4/4 127/6/6
f 154/158/148 153/193/183 160/159/149
f 274/161/151 275/296/281 151/162/152
f 161/160/150 205/215/205 172/164/154
f 281/166/156 272/277/265 149/167/157
f 140/169/159 141/173/163 261/170/160
f 273/172/162 275/296/281 141/173/163
f 277/174/164 278/294/279 154/158/148
f 159/176/166 200/203/193 171/177/167
f 244/178/168 147/201/191 148/179/169
f 270/181/171 268/287/272 164/182/172
f 143/184/174 144/190/180 264/185/175
f 273/172/162 271/295/280 165/187/177
f 276/189/179 278/294/279 144/190/180
f 166/191/181 157/199/189 150/188/178
f 158/192/182 159/176/166 152/163/153
f 276/189/179 274/161/151 152/163/153
f 159/176/166 160/159/149 153/193/183
f 161/160/150 162/165/155 155/175/165
f 142/194/184 143/184/174 263/186/176
f 141/173/163 142/194/184 262/195/185
f 163/196/186 140/169/159 260/171/161
f 144/190/180 145/279/267 265/198/188
f 151/162/152 150/188/178 157/199/189
f 237/200/190 148/179/169 147/201/191
f 200/203/193 159/176/166 158/192/182
f 206/205/195 205/215/205 171/177/167
f 196/207/197 195/217/207 169/208/198
f 201/210/200 202/233/223 181/211/201
f 238/212/202 210/257/247 211/213/203
f 205/215/205 206/205/195 177/216/206
f 195/217/207 196/207/197 175/218/208
f 206/205/195 207/223/213 182/219/209
f 175/218/208 196/207/197 197/220/210
f 181/211/201 186/227/217 208/222/212
f 197/220/210 179/235/225 184/224/214
f 203/226/216 204/238/228 191/69/69
f 212/228/218 213/239/229 241/229/219
f 207/223/213 208/222/212 187/231/221
f 180/221/211 197/220/210 198/225/215
f 208/222/212 209/89/89 192/78/78
f 185/232/222 198/225/215 199/80/80
f 170/204/194 158/192/182 157/199/189
f 202/233/223 203/226/216 186/227/217
f 180/221/211 185/232/222 203/226/216
f 200/203/193 201/210/200 176/206/196
f 201/210/200 200/203/193 170/204/194
f 198/225/215 184/224/214 189/82/82
f 251/234/224 250/240/230 182/219/209
f 196/207/197 174/209/199 179/235/225
f 249/236/226 248/260/250 172/164/154
f 220/237/227 219/248/238 169/208/198
f 186/227/217 191/69/69 209/89/89
f 203/226/216 185/232/222 190/90/90
f 207/223/213 206/205/195 176/206/196
f 202/233/223 201/210/200 175/218/208
f 166/191/181 169/208/198 195/217/207
f 213/239/229 214/134/131 242/91/91
f 187/231/221 192/78/78 252/93/93
f 211/213/203 212/228/218 240/230/220
f 250/240/230 249/236/226 177/216/206
f 160/159/149 171/177/167 205/215/205
f 237/200/190 194/251/241 279/241/231
f 269/243/233 268/287/272 149/167/157
f 215/98/98 189/82/82 184/224/214
f 217/246/236 216/245/235 184/224/214
f 218/247/237 217/246/236 179/235/225
f 219/248/238 218/247/237 174/209/199
f 168/249/239 221/267/257 227/250/240
f 188/252/242 225/283/269 224/253/243
f 183/254/244 224/253/243 223/255/245
f 235/202/192 147/201/191 210/257/247
f 178/256/246 223/255/245 222/258/248
f 162/165/155 172/164/154 248/260/250
f 226/113/113 225/283/269 188/252/242
f 254/261/251 232/307/258 231/262/252
f 256/264/254 230/270/259 229/265/255
f 173/259/249 222/258/248 221/267/257
f 258/122/122 233/123/123 232/268/258
f 253/263/253 231/262/252 230/270/259
f 257/271/260 221/267/257 222/258/248
f 257/308/260 228/309/268 234/310/261
f 168/249/239 235/202/192 238/212/202
f 266/275/263 269/243/233 243/244/234
f 148/179/169 237/200/190 280/242/232
f 178/256/246 239/214/204 240/230/220
f 241/229/219 242/91/91 193/114/114
f 183/254/244 240/230/220 241/229/219
f 173/259/249 238/212/202 239/214/204
f 194/251/241 237/200/190 235/202/192
f 147/201/191 244/178/168 248/260/250
f 212/228/218 211/213/203 249/236/226
f 251/234/224 252/93/93 214/134/131
f 210/257/247 248/260/250 249/236/226
f 213/239/229 212/228/218 250/240/230
f 265/198/188 270/181/171 246/183/173
f 162/165/155 244/178/168 245/180/170
f 277/174/164 281/166/156 247/168/158
f 221/267/257 257/271/260 259/274/262
f 228/311/268 257/312/260 255/313/256
f 224/253/243 253/284/253 256/281/254
f 226/113/113 258/143/122 254/282/251
f 223/255/245 256/281/254 255/272/256
f 225/283/269 254/282/251 253/284/253
f 145/279/267 247/168/158 270/181/171
f 146/285/270 236/286/271 269/243/233
f 236/286/271 164/182/172 268/287/272
f 264/185/175 265/198/188 139/278/266
f 267/197/187 260/171/161 134/289/274
f 261/170/160 262/195/185 136/291/276
f 262/195/185 263/186/176 137/293/278
f 263/186/176 264/185/175 138/288/273
f 247/168/158 149/167/157 268/287/272
f 260/171/161 261/170/160 135/292/277
f 155/175/165 245/180/170 281/166/156
f 272/277/265 280/242/232 243/244/234
f 280/242/232 279/241/231 156/276/264
f 143/184/174 142/194/184 274/161/151
f 153/193/183 154/158/148 278/294/279
f 140/169/159 163/196/186 271/295/280
f 145/279/267 144/190/180 278/294/279
f 150/188/178 151/162/152 275/296/281
f 245/180/170 148/179/169 272/277/265
f 142/194/184 141/173/163 275/296/281
